<svg width="130" height="130" viewBox="0 0 130 130" fill="none" xmlns="http://www.w3.org/2000/svg">
<path d="M10.8335 48.7502V46.0426V15.6336C10.8335 13.9534 10.8335 13.1133 11.1605 12.4716C11.4481 11.9071 11.907 11.4482 12.4715 11.1605C13.1133 10.8336 13.9533 10.8336 15.6335 10.8336H56.6169C57.6938 10.8336 58.2322 10.8336 58.7076 10.9975C59.128 11.1425 59.5109 11.3792 59.8286 11.6903C60.1878 12.0422 60.4286 12.5237 60.9102 13.4869L69.5324 30.7313C69.8534 31.3734 70.014 31.6945 70.2535 31.9291C70.4653 32.1365 70.7205 32.2943 71.0008 32.3909C71.3177 32.5002 71.6766 32.5002 72.3945 32.5002H112.767C115.007 32.5002 116.127 32.5002 116.983 32.9362C117.735 33.3197 118.347 33.9316 118.731 34.6843C119.167 35.5399 119.167 36.66 119.167 38.9002V62.2926V65.0002M10.8335 70.4182V73.1259V112.767C10.8335 115.007 10.8335 116.127 11.2695 116.983C11.653 117.736 12.2649 118.347 13.0175 118.731C13.8732 119.167 14.9933 119.167 17.2335 119.167H112.767C115.007 119.167 116.127 119.167 116.983 118.731C117.735 118.347 118.347 117.736 118.731 116.983C119.167 116.127 119.167 115.007 119.167 112.767V89.3759V86.6669" stroke="white" stroke-width="7" stroke-linecap="round" stroke-linejoin="round"/>
</svg>
