<svg width="130" height="130" viewBox="0 0 130 130" fill="none" xmlns="http://www.w3.org/2000/svg">
<path d="M119.167 51.4583V48.75V20.4333C119.167 17.073 119.167 15.3928 118.513 14.1094C117.938 12.9804 117.02 12.0625 115.891 11.4873C114.607 10.8333 112.927 10.8333 109.567 10.8333H20.4335C17.0732 10.8333 15.393 10.8333 14.1096 11.4873C12.9806 12.0625 12.0627 12.9804 11.4875 14.1094C10.8335 15.3928 10.8335 17.073 10.8335 20.4333V109.567C10.8335 112.927 10.8335 114.607 11.4875 115.891C12.0627 117.02 12.9806 117.937 14.1096 118.513C15.393 119.167 17.0732 119.167 20.4335 119.167H109.567C112.927 119.167 114.607 119.167 115.891 118.513C117.02 117.937 117.938 117.02 118.513 115.891C119.167 114.607 119.167 112.927 119.167 109.567V81.25V78.5417M43.3335 65H65.0002M65.0002 65H86.6668M65.0002 65V43.3333M65.0002 65V86.6667" stroke="white" stroke-width="7" stroke-linecap="round" stroke-linejoin="round"/>
</svg>
