<svg width="24" height="24" viewBox="0 0 24 24" fill="none" xmlns="http://www.w3.org/2000/svg">
<path d="M6 13V3C6 2.44772 6.44772 2 7 2C7.55228 2 8 2.44772 8 3V13M10 13V5C10 4.44772 10.4477 4 11 4C11.5523 4 12 4.44772 12 5V13M14 13V3C14 2.44772 14.4477 2 15 2C15.5523 2 16 2.44772 16 3V13M4 13H4.5C4.77614 13 5 13.2239 5 13.5V20C5 21.1046 5.89543 22 7 22H17C18.1046 22 19 21.1046 19 20V13.5C19 13.2239 19.2239 13 19.5 13H20M18 13H6V13.5C6 13.5 6 21 7 21H17C18 21 18 13.5 18 13.5V13" stroke="white" stroke-width="1.5" stroke-linecap="round" stroke-linejoin="round"/>
</svg>