<svg width="400" height="400" viewBox="0 0 400 400" fill="none" xmlns="http://www.w3.org/2000/svg">
<g clip-path="url(#clip0_18_94)">
<g clip-path="url(#clip1_18_94)">
<path d="M188.144 399.16C180.643 398.733 173.969 398.014 167.189 396.894C166.388 396.761 165 396.548 164.119 396.414C163.238 396.281 162.17 396.095 161.743 395.988L160.995 395.775L161.156 393.482C161.529 388.205 161.663 362.482 161.343 354.539C160.648 336.786 159.287 319.967 157.579 308.558C157.445 307.679 157.205 305.999 157.045 304.826C156.698 302.427 155.87 297.843 155.256 294.831C155.016 293.738 154.802 292.538 154.722 292.165C154.589 291.445 153.708 287.607 153.307 285.981C152.667 283.476 152.48 282.809 151.679 280.17C149.143 271.587 145.219 262.391 141.535 256.367C140.147 254.155 136.917 249.543 136.036 248.584C135.769 248.29 135.075 247.437 134.488 246.718C133.1 244.985 129.336 241.253 127.147 239.387C126.186 238.588 125.358 237.868 125.278 237.761C125.198 237.682 124.317 236.988 123.276 236.242C122.261 235.496 121.3 234.776 121.14 234.669C121.007 234.536 120.393 234.136 119.806 233.763C114.573 230.378 109.154 227.792 102.988 225.74C99.7311 224.674 93.2977 223.181 89.2401 222.595C82.6732 221.608 79.7367 221.528 39.9616 221.528H0.960614L0.640282 218.143C-0.0804753 210.12 -0.187256 207.721 -0.187256 198.098C-0.187256 188.582 -0.0537822 185.41 0.613586 178.213C1.17418 172.429 2.0551 166.405 3.20298 160.754C3.5767 158.915 3.95043 157.102 4.00382 156.702L4.13729 155.956H36.2243C54.2166 155.956 70.5004 155.849 73.3567 155.689C86.2503 154.996 89.7206 154.73 93.9917 154.09C94.8993 153.93 96.4476 153.69 97.462 153.557C104.136 152.518 110.249 151.211 114.333 149.959C117.003 149.132 119.005 148.466 119.539 148.226C119.832 148.119 120.5 147.879 121.007 147.693C121.514 147.506 122.181 147.266 122.475 147.16C122.769 147.027 123.863 146.627 124.878 146.227C128.321 144.921 134.354 142.042 137.664 140.176C139.827 138.95 143.163 136.871 144.632 135.858C145.806 135.032 150.771 131.326 150.905 131.193C150.985 131.113 151.812 130.367 152.774 129.567C153.708 128.768 154.882 127.755 155.336 127.301C155.79 126.875 156.804 125.889 157.605 125.142C160.328 122.557 164.145 118.505 166.361 115.84C169.378 112.188 169.324 112.268 170.552 110.642C173.088 107.203 173.782 106.217 174.129 105.577C174.316 105.204 174.556 104.858 174.637 104.778C175.117 104.405 178.961 97.9272 181.123 93.849C183.9 88.6245 185.208 85.9057 187.397 80.7878C188.064 79.2418 188.785 77.5625 188.998 77.0561C189.826 75.1369 190.066 74.4971 190.92 72.2048C191.241 71.3518 191.721 70.019 191.988 69.2727C192.282 68.4997 192.896 66.6605 193.376 65.1944C193.83 63.7284 194.311 62.289 194.417 61.9958C194.524 61.7026 194.764 60.9829 194.924 60.3964C195.085 59.81 195.458 58.5039 195.752 57.4643C196.072 56.4514 196.446 55.1187 196.606 54.5322C196.766 53.9458 196.98 53.1728 197.087 52.7996C197.22 52.4265 197.487 51.3603 197.727 50.4007C197.941 49.4411 198.368 47.6552 198.662 46.4024C199.116 44.4565 199.623 41.9776 200.797 35.8735C202.559 26.7573 204.241 12.63 204.721 2.76746L204.908 -0.77771H206.27C207.738 -0.77771 217.375 -0.0846711 219.11 0.128572C219.697 0.208538 221.379 0.395128 222.847 0.55506C224.315 0.714993 226.184 0.954891 226.985 1.08817C231.389 1.80786 232.35 1.99446 232.484 2.2077C232.564 2.34098 232.511 3.67374 232.35 5.16644C232.19 6.65914 231.95 9.27138 231.79 10.9507C230.909 20.4933 229.761 29.183 228.587 35.4736C228.453 36.14 228.213 37.4461 228.053 38.4057C227.866 39.3653 227.626 40.5115 227.519 40.938C227.412 41.3911 227.172 42.4574 226.985 43.337C226.798 44.2166 226.344 46.0825 225.97 47.4686C225.623 48.8546 225.223 50.4273 225.116 50.9338C224.636 52.9063 222.794 59.2503 221.886 61.9958C221.593 62.8754 221.272 63.9683 221.139 64.3948C221.005 64.8479 220.525 66.4472 220.071 67.9932C219.59 69.5392 219.003 71.5651 218.709 72.5247C217.455 76.6562 214.865 87.0252 212.329 97.8473C207.765 117.439 205.362 140.149 205.362 163.18C205.362 176.854 206.296 193.807 207.765 206.735C207.898 207.907 208.138 210.067 208.299 211.533C208.459 212.999 208.699 214.918 208.832 215.797C208.966 216.677 209.206 218.41 209.366 219.662C209.5 220.915 209.874 223.661 210.167 225.793C210.461 227.926 210.835 230.618 210.995 231.791C211.128 232.964 211.368 234.696 211.502 235.656C211.635 236.615 211.876 238.348 212.036 239.521C212.196 240.694 212.436 242.373 212.57 243.253C212.863 245.118 213.744 251.809 214.171 255.247C214.332 256.58 214.572 258.553 214.705 259.646C214.839 260.738 215.079 262.738 215.239 264.044C215.399 265.376 215.64 267.349 215.773 268.442C215.907 269.535 216.147 271.587 216.307 272.973C216.467 274.359 216.707 276.412 216.841 277.505C216.974 278.598 217.215 280.757 217.375 282.303C217.535 283.849 217.775 286.194 217.935 287.5C218.683 294.244 219.11 298.296 219.51 302.561C219.67 304.24 219.911 306.719 220.044 308.025C220.178 309.358 220.418 311.863 220.578 313.623C220.738 315.382 220.979 318.074 221.112 319.62C221.753 326.711 222.34 334.787 222.714 341.211C222.874 343.93 223.114 348.195 223.248 350.674C224.022 364.215 224.155 368.266 224.155 379.462C224.182 386.205 224.075 393.109 223.968 394.815L223.728 397.907L220.631 398.227C218.896 398.414 216.494 398.654 215.239 398.813C213.05 399.08 191.454 399.347 188.144 399.16ZM193.456 374.53C194.711 374.077 195.645 372.771 196.046 370.985C196.553 368.773 196.553 349.288 196.072 347.075C195.699 345.423 194.978 344.436 193.67 343.77C192.495 343.157 191.427 343.424 190.093 344.623C188.464 346.089 188.358 346.569 188.625 351.607C188.731 354.032 188.785 359.31 188.731 363.362C188.651 367.413 188.678 371.039 188.731 371.412C188.811 371.785 189.292 372.611 189.826 373.198C191.107 374.717 192.068 375.063 193.456 374.53ZM190.84 316.715C192.869 315.462 193.403 313.916 192.842 310.904C192.495 309.065 192.095 306.639 191.481 302.694C190.974 299.602 190.466 296.67 189.559 291.765C189.185 289.713 188.491 288.46 187.29 287.634C185.368 286.328 182.965 287.154 181.871 289.446C181.417 290.379 181.364 290.779 181.577 291.445C181.737 291.925 182.271 294.884 182.805 298.029C183.766 303.734 184.006 305.173 184.567 308.105C184.7 308.931 184.941 310.344 185.101 311.224C185.555 314.236 185.661 314.529 186.622 315.622C188.037 317.301 189.345 317.621 190.84 316.715ZM178.107 259.486C178.908 259.086 179.895 257.993 180.509 256.793C180.803 256.234 180.456 254.821 179.468 252.582C179.335 252.289 178.934 251.222 178.587 250.183C177.76 247.864 175.384 241.866 174.503 239.974C174.156 239.201 173.862 238.508 173.862 238.428C173.862 238.375 173.302 237.148 172.608 235.736C171.54 233.55 171.166 233.044 170.152 232.404C168.31 231.258 167.295 231.444 165.667 233.23C164.626 234.323 164.412 235.549 165.053 236.855C166.334 239.547 167.456 242.16 167.456 242.426C167.456 242.613 167.562 242.853 167.696 243.013C167.803 243.146 168.897 245.785 170.098 248.85C174.023 258.846 173.756 258.286 175.464 259.352C176.585 260.019 176.986 260.045 178.107 259.486ZM146.714 211.079C149.09 209.72 149.837 207.881 148.796 205.828C148.209 204.709 145.272 201.617 142.63 199.404C141.669 198.605 140.841 197.885 140.761 197.805C140.681 197.725 140.094 197.245 139.426 196.739C138.759 196.232 137.985 195.593 137.718 195.353C136.57 194.287 132.913 192.047 131.498 191.514C130.35 191.061 130.27 191.061 129.336 191.568C128.321 192.101 126.88 194.1 126.88 194.953C126.88 196.099 128.027 197.459 130.43 199.138C134.354 201.91 136.677 203.829 139.827 206.895C144.418 211.373 145.246 211.879 146.714 211.079ZM187.076 196.899C187.77 196.472 188.411 195.806 188.811 195.06L189.425 193.887L189.132 188.582C188.945 185.677 188.811 181.492 188.811 179.333C188.811 174.508 188.544 173.282 187.263 172.216C185.555 170.83 183.926 170.856 182.378 172.296C180.936 173.629 180.803 174.215 180.803 178.693C180.803 183.491 181.47 193.007 181.871 194.34C182.218 195.486 182.858 196.259 184.033 196.979C185.208 197.698 185.715 197.672 187.076 196.899ZM46.7955 191.354C48.3438 191.008 49.5183 190.022 50.1323 188.556C50.6395 187.356 50.4526 186.343 49.545 185.25C48.0768 183.518 48.2637 183.544 36.4913 183.464C29.4172 183.411 25.413 183.464 24.6922 183.651C23.2507 184.051 22.3164 184.851 21.6757 186.237C21.1685 187.249 21.1685 187.489 21.4889 188.369C21.9427 189.622 23.2774 190.981 24.4253 191.328C25.7066 191.754 45.0069 191.781 46.7955 191.354ZM102.854 191.115C104.109 190.342 104.67 189.648 105.017 188.476C105.577 186.61 104.029 184.611 101.52 183.944C100.692 183.704 97.0883 183.598 89.6405 183.598C77.9215 183.571 77.8681 183.571 76.3999 185.197C75.252 186.45 74.9584 187.516 75.4389 188.556C76.133 189.995 76.8804 190.661 78.3753 191.168C79.63 191.621 80.8579 191.648 90.8418 191.674C101.68 191.674 101.947 191.648 102.854 191.115ZM187.85 144.361C189.132 143.828 190.36 142.495 190.68 141.322C190.813 140.789 191.187 138.683 191.481 136.631C192.469 130.207 193.083 126.289 193.349 124.796C193.99 121.251 193.243 119.438 190.707 118.372C189.666 117.945 188.785 118.185 187.637 119.172C186.462 120.211 186.275 120.744 185.635 125.036C185.314 127.008 184.967 129.247 184.834 129.967C183.846 135.298 183.125 140.896 183.312 141.642C183.553 142.602 185.448 144.254 186.836 144.761C186.863 144.761 187.316 144.574 187.85 144.361Z" fill="#0B0B0B"/>
<path d="M237.93 384.473C237.93 366.987 237.129 347.982 235.527 327.75C235.394 325.991 235.153 322.872 234.993 320.82C234.7 317.061 234.406 313.809 233.925 308.691C233.765 307.145 233.525 304.64 233.365 303.094C232.564 294.831 230.268 273.453 229.361 266.123C229.227 264.817 228.987 262.951 228.853 261.911C227.946 254.421 227.786 251.622 227.786 242.986C227.786 233.31 228.053 229.365 229.147 222.994C229.788 219.316 231.096 214.038 232.297 210.466C234.299 204.336 236.622 199.084 239.798 193.407C240.599 191.968 242.948 188.236 243.455 187.543C243.589 187.383 244.203 186.503 244.844 185.544C246.045 183.811 249.115 179.653 249.382 179.413C249.462 179.333 250.316 178.373 251.277 177.28C253.493 174.721 257.257 170.963 259.819 168.751C260.914 167.791 261.875 166.965 261.955 166.885C262.035 166.805 262.622 166.325 263.29 165.819C263.957 165.312 264.544 164.832 264.624 164.752C264.704 164.672 265.185 164.299 265.692 163.953C266.199 163.606 266.68 163.233 266.76 163.153C267.134 162.78 274.421 157.929 276.183 156.916C282.99 152.997 292.921 149.052 300.662 147.213C303.892 146.44 304.933 146.227 308.671 145.56C309.632 145.401 311.02 145.161 311.741 145.027C312.488 144.894 314.17 144.654 315.478 144.521C316.813 144.361 318.975 144.121 320.31 143.961C322.659 143.695 392.225 143.561 392.225 143.828C392.225 143.881 392.412 144.628 392.652 145.48C393.4 148.306 394.281 151.798 394.868 154.357C395.722 158.062 395.882 158.861 396.203 160.487C396.363 161.287 396.603 162.567 396.737 163.286C396.977 164.566 397.27 166.352 397.831 169.897C398.365 173.549 398.792 177.44 399.486 185.01C399.993 190.661 399.887 210.733 399.326 216.304C399.086 218.783 398.845 220.889 398.792 220.969C398.739 221.049 385.738 221.102 369.882 221.049C342.413 220.995 333.23 221.155 328.158 221.795C322.819 222.488 321.431 222.701 318.895 223.288C305.681 226.38 294.763 233.337 288.703 242.506C287.795 243.919 285.366 248.584 284.619 250.449C283.364 253.541 282.109 258.686 281.549 262.977C281.122 266.416 281.068 274.839 281.442 278.518C281.923 282.969 282.537 288.38 283.177 293.498C283.417 295.337 283.711 297.789 283.845 298.962C283.978 300.135 284.218 302.108 284.378 303.36C284.539 304.613 284.779 306.479 284.912 307.492C285.473 311.837 287.261 326.87 287.582 330.149C287.715 331.482 287.956 333.641 288.089 334.947C289.05 343.61 290.198 355.498 290.785 362.802C291.106 366.507 291.559 374.131 291.586 375.677V376.663L286.861 379.008C284.245 380.288 281.148 381.754 279.974 382.234C278.799 382.74 277.117 383.46 276.237 383.86C274.795 384.499 272.633 385.352 267.187 387.432C262.863 389.111 252.905 392.23 248.874 393.189C248.367 393.322 247.513 393.536 247.006 393.669C244.23 394.415 239.852 395.322 238.971 395.322H237.93V384.473ZM266.813 364.161C268.976 362.802 268.922 363.228 268.468 350.86C268.175 342.677 267.988 339.692 267.668 338.705C267.187 337.186 265.799 335.747 264.571 335.507C263.503 335.294 261.688 336.173 260.834 337.319C260.246 338.119 260.22 338.332 260.273 342.011C260.353 347.209 260.887 360.909 261.047 361.656C261.207 362.482 262.676 364.108 263.663 364.535C264.918 365.068 265.479 365.014 266.813 364.161ZM261.688 306.826C262.569 306.186 263.423 305.093 263.61 304.267C263.69 303.974 263.637 303.014 263.53 302.134C262.515 295.231 261.661 288.007 261.154 282.303C260.994 280.33 260.674 278.358 260.487 277.905C260.006 276.865 258.858 275.772 257.657 275.292C256.803 274.946 256.616 274.946 255.708 275.399C253.546 276.438 252.772 278.038 253.119 280.783C253.279 281.85 253.519 284.142 253.68 285.901C254.133 290.752 254.854 296.163 255.975 303.094C256.563 306.746 259.285 308.532 261.688 306.826ZM259.232 240.08C260.593 239.228 261.127 238.348 261.688 236.082C262.515 232.777 264.09 228.192 265.719 224.38C266.6 222.355 267.294 220.649 267.294 220.595C267.294 220.542 267.641 219.742 268.068 218.81C269.376 215.904 269.403 215.851 269.029 214.971C268.602 213.958 267.561 212.865 266.44 212.306C265.719 211.932 265.452 211.906 264.651 212.199C263.023 212.785 262.062 214.012 260.62 217.397C260.14 218.57 259.446 220.142 259.099 220.915C258.378 222.541 258.138 223.101 257.096 225.926C256.376 227.846 256.082 228.779 255.281 231.258C254.347 234.19 253.706 237.308 253.92 237.868C254.427 239.148 256.456 240.72 257.63 240.72C257.951 240.72 258.671 240.427 259.232 240.08ZM293.802 192.634C296.578 190.955 300.208 189.222 302.531 188.502C303.625 188.156 304.827 187.783 305.2 187.649C305.574 187.543 307.016 187.249 308.404 187.01C313.235 186.157 314.09 185.703 314.917 183.704C315.291 182.771 315.291 182.531 314.944 181.758C314.116 179.893 312.728 178.88 311.02 178.88C310.005 178.88 305.307 179.759 302.798 180.426C299.114 181.412 295.59 182.958 291.533 185.357C288.516 187.17 287.795 187.836 287.315 189.249C287.021 190.208 287.021 190.395 287.609 191.434C288.329 192.714 289.931 193.807 291.132 193.807C291.533 193.807 292.734 193.274 293.802 192.634ZM368.36 185.677C369.054 185.277 369.802 184.531 370.229 183.811C370.843 182.745 370.869 182.531 370.602 181.705C370.202 180.452 368.734 179.04 367.452 178.666C366.038 178.24 347.031 178.213 345.349 178.64C344.014 178.986 342.066 180.719 341.986 181.652C341.879 183.438 342.653 184.93 344.175 185.783C345.056 186.263 345.696 186.29 356.161 186.317L367.212 186.343L368.36 185.677Z" fill="#0B0B0B"/>
<path d="M144.632 391.883C144.338 391.75 143.564 391.483 142.897 391.323C141.375 390.897 135.449 388.978 134.755 388.684C134.461 388.551 133.794 388.311 133.286 388.125C132.779 387.938 132.112 387.698 131.818 387.591C131.525 387.458 129.549 386.685 127.414 385.859C125.278 385.033 123.062 384.126 122.475 383.86C121.888 383.62 120.099 382.82 118.471 382.1C114.84 380.528 105.123 375.597 102.054 373.811C99.0638 372.051 95.0596 369.652 94.7125 369.412C94.5791 369.306 92.4168 367.866 89.9075 366.214C87.4249 364.588 85.2626 363.122 85.1024 363.015C84.969 362.882 83.5275 361.816 81.8991 360.616C80.2974 359.417 78.9093 358.377 78.8292 358.297C78.7491 358.217 77.9216 357.551 76.9605 356.804C75.4389 355.658 70.6606 351.74 70.2869 351.34C70.2068 351.26 69.2458 350.434 68.1513 349.501C65.6153 347.315 53.8696 335.587 51.6006 332.948C50.6395 331.855 49.7319 330.789 49.5451 330.602C49.3582 330.416 48.7709 329.696 48.2103 329.003C47.6497 328.31 47.0625 327.59 46.8756 327.404C46.6887 327.217 46.1014 326.497 45.5409 325.804C44.9803 325.111 44.4464 324.498 44.3663 324.418C44.2862 324.338 42.8714 322.499 41.243 320.287C39.6146 318.101 38.1731 316.182 38.0396 316.022C37.9329 315.888 36.518 313.783 34.8897 311.357C28.91 302.481 23.144 292.245 18.766 282.702C18.3122 281.743 17.6182 280.197 17.1644 279.237C16.7372 278.278 16.3635 277.425 16.3635 277.371C16.3635 277.318 16.0699 276.625 15.7228 275.852C14.9754 274.226 13.5873 270.787 12.8932 268.842C12.6263 268.122 12.039 266.496 11.5585 265.243C10.5441 262.498 9.15594 258.366 8.3551 255.647C8.00807 254.554 7.60765 253.168 7.39409 252.555C6.99367 251.302 5.55215 245.865 4.99157 243.599C4.77801 242.746 4.43098 241.307 4.21742 240.4C3.97717 239.467 3.71022 237.841 3.63013 236.775L3.46997 234.829L33.0744 234.883C81.6054 234.989 84.355 235.096 95.3799 237.708C108.247 240.747 118.925 247.517 126.372 257.38C133.847 267.322 139.106 281.13 142.389 299.575C142.523 300.322 142.763 301.654 142.897 302.507C144.872 313.25 146.394 328.523 147.301 346.542C147.702 354.539 147.808 382.607 147.461 388.924L147.301 391.99L146.233 392.043C145.646 392.07 144.925 391.99 144.632 391.883Z" fill="#0B0B0B"/>
<path d="M304.586 366.081C304.4 363.948 304.079 360.403 303.625 355.872C303.465 354.485 303.225 352.086 303.092 350.54C302.397 343.423 301.97 339.399 300.929 329.883C300.796 328.71 300.582 326.604 300.422 325.218C300.289 323.832 300.102 322.152 299.995 321.486C299.915 320.82 299.675 318.607 299.434 316.555C299.221 314.502 298.9 311.863 298.767 310.691C298.633 309.518 298.393 307.545 298.233 306.293C298.073 305.04 297.859 303.2 297.726 302.161C297.592 301.148 297.432 299.629 297.325 298.829C297.245 298.029 297.059 296.537 296.925 295.497C296.658 293.685 295.964 287.767 295.297 282.036C294.843 278.144 294.843 265.43 295.297 262.711C295.884 259.086 296.685 256.207 297.726 253.941C299.675 249.676 302.397 246.105 305.734 243.386C306.535 242.719 307.256 242.133 307.336 242.053C307.763 241.6 310.433 240.001 312.274 239.121C316.626 237.015 321.965 235.709 328.291 235.149C330.64 234.936 342.279 234.803 364.142 234.776L396.496 234.723V235.522C396.496 236.295 396.203 237.735 394.601 244.452C393.56 248.823 393.293 249.756 391.665 255.381C390.971 257.726 388.968 263.83 388.354 265.536C388.114 266.176 387.66 267.376 387.367 268.175C387.073 268.975 386.726 269.881 386.619 270.174C386.513 270.468 386.139 271.427 385.792 272.307C385.471 273.187 384.857 274.653 384.43 275.586C384.03 276.492 383.683 277.318 383.683 277.371C383.683 277.425 383.363 278.171 382.989 279.024C382.615 279.877 382.108 280.997 381.894 281.503C380.533 284.728 375.087 295.337 372.791 299.229C372.284 300.108 371.67 301.201 371.403 301.628C369.241 305.386 365.771 310.717 362.274 315.622C360.779 317.754 359.471 319.54 359.391 319.62C359.311 319.7 358.937 320.18 358.59 320.686C358.243 321.193 357.869 321.673 357.789 321.753C357.709 321.833 357.228 322.419 356.721 323.085C356.214 323.752 355.734 324.338 355.653 324.418C355.573 324.498 355.093 325.085 354.586 325.751C354.078 326.417 353.598 327.004 353.518 327.084C353.438 327.164 352.717 327.99 351.916 328.95C351.115 329.909 350.261 330.869 350.048 331.082C349.834 331.295 348.739 332.495 347.645 333.748C345.563 336.093 337.634 344.09 335.072 346.409C332.536 348.728 329.92 351.02 329.092 351.633C328.665 351.98 328.131 352.406 327.944 352.593C327.757 352.78 327.037 353.366 326.343 353.926C325.649 354.485 325.035 355.019 324.954 355.099C324.874 355.179 323.086 356.538 320.95 358.111C318.815 359.683 316.813 361.176 316.492 361.416C315.585 362.109 312.034 364.508 309.125 366.427C307.229 367.653 306.241 368.133 305.628 368.133H304.747L304.586 366.081Z" fill="#0B0B0B"/>
<path d="M221.539 192.954C221.406 192.314 221.325 190.875 220.818 178.347C220.498 170.03 220.658 150.039 221.085 143.828C221.726 135.378 222.206 129.887 222.714 125.782C223.434 120.051 223.514 119.465 224.449 113.84C224.689 112.454 224.983 110.642 225.116 109.842C225.223 109.043 225.57 107.23 225.89 105.844C226.184 104.458 226.664 102.245 226.958 100.913C227.786 97.1275 229.574 90.0905 230.188 88.118C230.348 87.6915 230.829 86.0122 231.283 84.3863C232.19 81.1343 232.35 80.5745 233.098 78.2555C233.392 77.3759 233.872 75.7499 234.192 74.657C234.513 73.5642 234.886 72.3647 234.993 71.9915C235.127 71.6183 235.607 70.0723 236.061 68.5263C237.316 64.3947 237.342 64.2348 237.823 62.7954C238.063 62.0757 238.357 61.0361 238.463 60.5297C238.597 60.0232 238.997 58.5838 239.371 57.331C241.347 50.7205 243.829 40.7514 245.11 34.2741C246.338 28.0101 247.353 21.6661 248.341 13.7495C248.501 12.4433 248.768 10.5508 248.901 9.56455C249.035 8.5783 249.141 7.35216 249.141 6.8457C249.141 5.91277 249.168 5.88611 250.156 5.88611C251.651 5.88611 258.511 7.93857 266.093 10.6308C277.731 14.789 290.518 20.9198 302.13 27.8768C305.414 29.8227 313.983 35.367 314.277 35.7135C314.357 35.7935 315.184 36.4065 316.145 37.0463C317.88 38.2458 322.045 41.3111 322.285 41.6043C322.365 41.6843 323.566 42.6172 324.954 43.7101C326.343 44.803 327.837 46.0025 328.291 46.4023C328.718 46.8021 330.187 48.0816 331.495 49.2278C335.659 52.8796 343.374 60.3431 347.245 64.5546C348.125 65.4876 349.46 66.927 350.181 67.7266C352.717 70.4721 357.575 76.3896 360.645 80.4946C361.259 81.3209 361.873 82.1206 362.007 82.2538C362.113 82.4138 362.754 83.2934 363.395 84.253C364.062 85.2126 364.676 86.0389 364.756 86.1189C365.05 86.3588 370.522 94.7819 372.124 97.4474C376.075 104.005 379.118 109.709 381.841 115.626C383.656 119.545 383.95 120.211 385.071 122.903C386.913 127.248 386.94 127.301 386.833 128.341L386.753 129.354L359.23 129.301C343.08 129.301 329.946 129.407 327.464 129.567C319.482 130.074 313.075 130.767 305.467 131.966C304.666 132.099 303.519 132.286 302.931 132.366C301.677 132.553 299.408 133.032 295.937 133.859C281.255 137.324 266.253 144.814 253.279 155.13C248.981 158.568 242.548 164.912 238.997 169.284C238.33 170.083 237.743 170.803 237.663 170.883C237.583 170.963 237.102 171.549 236.595 172.216C236.088 172.882 235.58 173.549 235.447 173.682C235.34 173.842 234.78 174.615 234.192 175.414C233.605 176.214 233.044 177.014 232.911 177.174C232.778 177.307 232.511 177.733 232.324 178.107C232.137 178.453 231.897 178.8 231.816 178.88C231.229 179.333 225.703 189.062 223.781 193.007C223.675 193.22 223.167 193.434 222.634 193.487C221.806 193.567 221.646 193.487 221.539 192.954Z" fill="#0B0B0B"/>
<path d="M8.08813 141.056C8.08813 139.243 11.4517 129.621 15.2423 120.638C16.5504 117.546 22.7435 104.964 24.0516 102.752C24.4787 102.032 25.6533 100.06 26.641 98.3804C30.1113 92.4629 35.7439 83.9065 37.4523 81.934C37.5858 81.7474 37.9862 81.2143 38.3333 80.7345C38.9739 79.7749 40.282 78.0423 40.976 77.1894C41.2163 76.8961 42.4709 75.3235 43.779 73.6975C47.5963 68.8995 49.7586 66.4472 54.6704 61.356C59.7958 56.025 62.5721 53.3594 66.8165 49.601C68.0445 48.5081 69.2191 47.4686 69.4326 47.282C69.6195 47.0954 70.3402 46.509 71.0343 45.9492C71.7284 45.3895 72.3423 44.883 72.4224 44.803C72.5025 44.7231 73.0898 44.2433 73.7572 43.7368C74.4245 43.2304 75.0118 42.7506 75.0919 42.644C75.172 42.564 77.0406 41.1513 79.2296 39.5253C81.4452 37.8993 83.3673 36.4599 83.5007 36.3266C84.1414 35.8468 91.1354 31.1821 92.7104 30.2225C93.6714 29.6361 95.4333 28.5699 96.6078 27.8235C98.69 26.5441 99.8379 25.8777 103.335 23.9852C104.162 23.5054 104.99 23.0522 105.123 22.9456C105.47 22.6524 115.214 17.8011 116.816 17.1081C117.51 16.7882 118.578 16.3084 119.218 16.0419C120.98 15.2422 131.151 11.2172 132.486 10.7641C133.153 10.5508 134.648 10.0444 135.822 9.61791C137.878 8.89822 143.991 7.00568 146.233 6.39261C146.821 6.23268 147.595 5.99278 147.969 5.88616C149.891 5.32639 150.611 5.11315 151.706 4.87325C154.936 4.10025 156.511 3.72707 157.846 3.46051C158.646 3.30058 159.794 3.06068 160.382 2.92741C160.969 2.79413 162.117 2.58089 162.918 2.42095C163.718 2.28768 165.107 2.04778 165.987 1.88785C170.712 1.00822 180.109 -0.0846543 185.421 -0.404519L188.278 -0.564453V2.42095C188.278 4.04693 188.171 6.84575 188.011 8.63166C187.343 17.0814 186.996 20.7066 186.382 25.6112C185.341 34.1675 183.526 43.8701 181.47 52C181.23 52.9596 180.91 54.1591 180.803 54.6655C180.67 55.172 180.323 56.5048 180.002 57.5976C179.682 58.6905 179.335 59.97 179.228 60.3965C178.294 63.8083 174.263 74.897 172.474 78.922C169.378 85.959 167.376 89.6641 163.078 96.5145C161.609 98.8602 156.724 105.631 155.977 106.377C155.897 106.457 155.176 107.283 154.375 108.243C147.942 115.84 138.786 123.596 131.284 127.781C127.333 130.02 122.181 132.473 118.684 133.859C118.337 133.992 117.803 134.205 117.483 134.365C115.988 135.005 108.033 137.511 105.791 138.044C95.8604 140.443 89.2935 141.349 78.4287 141.829C75.1987 141.989 58.0607 142.095 40.3354 142.095H8.08813V141.056Z" fill="#0B0B0B"/>
</g>
</g>
<defs>
<clipPath id="clip0_18_94">
<rect width="400" height="400" fill="white"/>
</clipPath>
<clipPath id="clip1_18_94">
<rect width="400" height="400" fill="white"/>
</clipPath>
</defs>
</svg>
