<svg width="20" height="20" viewBox="0 0 20 20" fill="none" xmlns="http://www.w3.org/2000/svg">
<g clip-path="url(#clip0_42_55)">
<path d="M7.17417 10.7364C4.11511 9.55979 2.58559 8.97151 2.1427 8.2345C1.62271 7.36915 1.67421 6.27597 2.27327 5.46336C2.78349 4.77125 4.34185 4.33491 7.45858 3.46222L13.2202 1.84897C15.4596 1.22193 16.5793 0.908417 17.3477 1.19941C18.0176 1.45313 18.5465 1.98202 18.8002 2.65192C19.0912 3.42027 18.7776 4.53997 18.1506 6.77937L16.5372 12.5414C15.6645 15.6578 15.2282 17.216 14.5362 17.7262C13.7236 18.3253 12.6302 18.3769 11.7648 17.8567C11.0279 17.4138 10.4397 15.8845 9.26333 12.8257C9.16599 12.5726 9.11732 12.4461 9.10241 12.3231C9.0757 12.1029 9.123 11.88 9.23688 11.6895C9.30045 11.5832 9.39515 11.4885 9.58457 11.2991L11.6665 9.21721C11.9105 8.97313 11.9105 8.57741 11.6665 8.33333C11.4224 8.08925 11.0267 8.08925 10.7826 8.33333L8.70077 10.4151C8.51138 10.6045 8.41668 10.6992 8.31038 10.7628C8.11993 10.8767 7.89701 10.924 7.67671 10.8973C7.55376 10.8823 7.42723 10.8337 7.17417 10.7364Z" fill="white"/>
</g>
<defs>
<clipPath id="clip0_42_55">
<rect width="20" height="20" fill="white"/>
</clipPath>
</defs>
</svg>
