<svg width="577" height="192" viewBox="0 0 577 192" fill="none" xmlns="http://www.w3.org/2000/svg">
<mask id="path-1-outside-1_58_83" maskUnits="userSpaceOnUse" x="222" y="59" width="356" height="77" fill="black">
<rect fill="white" x="222" y="59" width="356" height="77"/>
<path d="M238.944 133H223.392V61.96H250.848C268.128 61.96 277.92 70.312 277.92 85C277.92 94.216 273.984 100.744 266.112 104.776L278.592 133H261.6L250.944 108.136H238.944V133ZM238.944 75.784V94.504H250.752C257.568 94.504 261.504 91.048 261.504 85C261.504 79.048 257.76 75.784 250.848 75.784H238.944ZM281.695 108.904C281.695 93.736 292.831 83.56 308.191 83.56C323.455 83.56 334.591 93.736 334.591 108.904C334.591 124.072 323.455 134.152 308.191 134.152C292.831 134.152 281.695 124.072 281.695 108.904ZM296.575 108.808C296.575 116.104 301.279 120.904 308.191 120.904C315.007 120.904 319.711 116.104 319.711 108.808C319.711 101.608 315.007 96.808 308.191 96.808C301.279 96.808 296.575 101.608 296.575 108.808ZM357.658 134.248C347.482 134.248 341.146 128.296 341.146 118.888C341.146 110.056 347.386 104.584 358.906 103.72L372.346 102.664V101.896C372.346 97.192 369.466 94.696 364.186 94.696C357.946 94.696 354.586 97.096 354.586 101.416H342.298C342.298 90.568 351.226 83.464 364.954 83.464C378.874 83.464 386.746 91.24 386.746 104.968V133H373.69L372.73 126.664C371.194 131.08 364.858 134.248 357.658 134.248ZM362.842 123.304C368.506 123.304 372.442 120.52 372.442 115.048V112.456L364.954 113.128C358.522 113.704 356.218 115.144 356.218 118.216C356.218 121.672 358.33 123.304 362.842 123.304ZM417.509 134.248C403.685 134.248 394.757 124.456 394.757 109.288C394.757 94.024 403.877 83.464 418.469 83.464C424.421 83.464 430.085 85.864 432.869 89.416V60.616H447.653V133H433.733L432.965 126.856C430.373 131.272 424.421 134.248 417.509 134.248ZM421.061 120.712C427.973 120.712 432.773 115.912 432.773 108.712C432.773 101.512 427.973 96.712 421.061 96.712C414.053 96.712 409.637 101.608 409.637 108.712C409.637 115.816 414.053 120.712 421.061 120.712ZM501.538 61.96V133H485.986V61.96H501.538ZM526.057 133H509.833L535.177 61.96H550.345L575.593 133H559.081L554.089 118.024H531.145L526.057 133ZM540.745 89.8L535.657 104.968H549.673L544.585 89.8C543.817 87.4 542.953 84.616 542.665 82.888C542.377 84.52 541.609 87.208 540.745 89.8Z"/>
</mask>
<path d="M238.944 133H223.392V61.96H250.848C268.128 61.96 277.92 70.312 277.92 85C277.92 94.216 273.984 100.744 266.112 104.776L278.592 133H261.6L250.944 108.136H238.944V133ZM238.944 75.784V94.504H250.752C257.568 94.504 261.504 91.048 261.504 85C261.504 79.048 257.76 75.784 250.848 75.784H238.944ZM281.695 108.904C281.695 93.736 292.831 83.56 308.191 83.56C323.455 83.56 334.591 93.736 334.591 108.904C334.591 124.072 323.455 134.152 308.191 134.152C292.831 134.152 281.695 124.072 281.695 108.904ZM296.575 108.808C296.575 116.104 301.279 120.904 308.191 120.904C315.007 120.904 319.711 116.104 319.711 108.808C319.711 101.608 315.007 96.808 308.191 96.808C301.279 96.808 296.575 101.608 296.575 108.808ZM357.658 134.248C347.482 134.248 341.146 128.296 341.146 118.888C341.146 110.056 347.386 104.584 358.906 103.72L372.346 102.664V101.896C372.346 97.192 369.466 94.696 364.186 94.696C357.946 94.696 354.586 97.096 354.586 101.416H342.298C342.298 90.568 351.226 83.464 364.954 83.464C378.874 83.464 386.746 91.24 386.746 104.968V133H373.69L372.73 126.664C371.194 131.08 364.858 134.248 357.658 134.248ZM362.842 123.304C368.506 123.304 372.442 120.52 372.442 115.048V112.456L364.954 113.128C358.522 113.704 356.218 115.144 356.218 118.216C356.218 121.672 358.33 123.304 362.842 123.304ZM417.509 134.248C403.685 134.248 394.757 124.456 394.757 109.288C394.757 94.024 403.877 83.464 418.469 83.464C424.421 83.464 430.085 85.864 432.869 89.416V60.616H447.653V133H433.733L432.965 126.856C430.373 131.272 424.421 134.248 417.509 134.248ZM421.061 120.712C427.973 120.712 432.773 115.912 432.773 108.712C432.773 101.512 427.973 96.712 421.061 96.712C414.053 96.712 409.637 101.608 409.637 108.712C409.637 115.816 414.053 120.712 421.061 120.712ZM501.538 61.96V133H485.986V61.96H501.538ZM526.057 133H509.833L535.177 61.96H550.345L575.593 133H559.081L554.089 118.024H531.145L526.057 133ZM540.745 89.8L535.657 104.968H549.673L544.585 89.8C543.817 87.4 542.953 84.616 542.665 82.888C542.377 84.52 541.609 87.208 540.745 89.8Z" fill="black"/>
<path d="M238.944 133V134H239.944V133H238.944ZM223.392 133H222.392V134H223.392V133ZM223.392 61.96V60.96H222.392V61.96H223.392ZM266.112 104.776L265.656 103.886L264.815 104.317L265.197 105.18L266.112 104.776ZM278.592 133V134H280.128L279.507 132.596L278.592 133ZM261.6 133L260.681 133.394L260.941 134H261.6V133ZM250.944 108.136L251.863 107.742L251.603 107.136H250.944V108.136ZM238.944 108.136V107.136H237.944V108.136H238.944ZM238.944 75.784V74.784H237.944V75.784H238.944ZM238.944 94.504H237.944V95.504H238.944V94.504ZM238.944 133V132H223.392V133V134H238.944V133ZM223.392 133H224.392V61.96H223.392H222.392V133H223.392ZM223.392 61.96V62.96H250.848V61.96V60.96H223.392V61.96ZM250.848 61.96V62.96C259.341 62.96 265.847 65.0134 270.216 68.7333C274.56 72.433 276.92 77.8916 276.92 85H277.92H278.92C278.92 77.4204 276.384 71.359 271.512 67.2106C266.665 63.0826 259.635 60.96 250.848 60.96V61.96ZM277.92 85H276.92C276.92 89.4633 275.968 93.214 274.11 96.3184C272.253 99.421 269.453 101.941 265.656 103.886L266.112 104.776L266.568 105.666C270.643 103.579 273.747 100.819 275.826 97.3456C277.904 93.874 278.92 89.7527 278.92 85H277.92ZM266.112 104.776L265.197 105.18L277.677 133.404L278.592 133L279.507 132.596L267.027 104.372L266.112 104.776ZM278.592 133V132H261.6V133V134H278.592V133ZM261.6 133L262.519 132.606L251.863 107.742L250.944 108.136L250.025 108.53L260.681 133.394L261.6 133ZM250.944 108.136V107.136H238.944V108.136V109.136H250.944V108.136ZM238.944 108.136H237.944V133H238.944H239.944V108.136H238.944ZM238.944 75.784H237.944V94.504H238.944H239.944V75.784H238.944ZM238.944 94.504V95.504H250.752V94.504V93.504H238.944V94.504ZM250.752 94.504V95.504C254.318 95.504 257.271 94.6 259.346 92.7698C261.438 90.9237 262.504 88.2511 262.504 85H261.504H260.504C260.504 87.7969 259.602 89.8763 258.022 91.2702C256.425 92.68 254.002 93.504 250.752 93.504V94.504ZM261.504 85H262.504C262.504 81.8056 261.491 79.1966 259.423 77.4043C257.378 75.6321 254.446 74.784 250.848 74.784V75.784V76.784C254.162 76.784 256.558 77.5679 258.113 78.9157C259.645 80.2434 260.504 82.2424 260.504 85H261.504ZM250.848 75.784V74.784H238.944V75.784V76.784H250.848V75.784ZM281.695 108.904H282.695C282.695 101.576 285.379 95.5096 289.869 91.2712C294.365 87.0278 300.733 84.56 308.191 84.56V83.56V82.56C300.289 82.56 293.409 85.1802 288.496 89.8168C283.579 94.4584 280.695 101.064 280.695 108.904H281.695ZM308.191 83.56V84.56C315.599 84.56 321.943 87.0268 326.427 91.2703C330.907 95.5089 333.591 101.576 333.591 108.904H334.591H335.591C335.591 101.064 332.707 94.459 327.802 89.8177C322.902 85.1812 316.047 82.56 308.191 82.56V83.56ZM334.591 108.904H333.591C333.591 116.232 330.907 122.274 326.429 126.488C321.946 130.707 315.602 133.152 308.191 133.152V134.152V135.152C316.044 135.152 322.9 132.557 327.8 127.944C332.707 123.326 335.591 116.744 335.591 108.904H334.591ZM308.191 134.152V133.152C300.73 133.152 294.362 130.707 289.867 126.487C285.378 122.273 282.695 116.231 282.695 108.904H281.695H280.695C280.695 116.745 283.579 123.327 288.498 127.945C293.412 132.557 300.291 135.152 308.191 135.152V134.152ZM296.575 108.808H295.575C295.575 112.674 296.824 115.96 299.071 118.287C301.321 120.616 304.496 121.904 308.191 121.904V120.904V119.904C304.974 119.904 302.34 118.792 300.51 116.897C298.677 115 297.575 112.238 297.575 108.808H296.575ZM308.191 120.904V121.904C311.842 121.904 314.992 120.613 317.228 118.285C319.461 115.959 320.711 112.674 320.711 108.808H319.711H318.711C318.711 112.238 317.608 115.001 315.785 116.899C313.965 118.795 311.356 119.904 308.191 119.904V120.904ZM319.711 108.808H320.711C320.711 104.987 319.459 101.726 317.226 99.4133C314.991 97.0986 311.841 95.808 308.191 95.808V96.808V97.808C311.356 97.808 313.967 98.9174 315.787 100.803C317.61 102.69 318.711 105.429 318.711 108.808H319.711ZM308.191 96.808V95.808C304.496 95.808 301.323 97.096 299.073 99.4112C296.827 101.724 295.575 104.987 295.575 108.808H296.575H297.575C297.575 105.429 298.675 102.692 300.508 100.805C302.339 98.92 304.974 97.808 308.191 97.808V96.808ZM358.906 103.72L358.981 104.717L358.984 104.717L358.906 103.72ZM372.346 102.664L372.424 103.661L373.346 103.589V102.664H372.346ZM354.586 101.416V102.416H355.586V101.416H354.586ZM342.298 101.416H341.298V102.416H342.298V101.416ZM386.746 133V134H387.746V133H386.746ZM373.69 133L372.701 133.15L372.83 134H373.69V133ZM372.73 126.664L373.718 126.514L371.785 126.335L372.73 126.664ZM372.442 112.456H373.442V111.362L372.352 111.46L372.442 112.456ZM364.954 113.128L365.043 114.124L365.043 114.124L364.954 113.128ZM357.658 134.248V133.248C352.762 133.248 348.899 131.819 346.268 129.365C343.645 126.918 342.146 123.359 342.146 118.888H341.146H340.146C340.146 123.825 341.815 127.946 344.904 130.827C347.985 133.701 352.377 135.248 357.658 135.248V134.248ZM341.146 118.888H342.146C342.146 114.73 343.603 111.444 346.358 109.074C349.142 106.68 353.349 105.14 358.981 104.717L358.906 103.72L358.831 102.723C352.942 103.164 348.27 104.792 345.054 107.558C341.809 110.348 340.146 114.214 340.146 118.888H341.146ZM358.906 103.72L358.984 104.717L372.424 103.661L372.346 102.664L372.267 101.667L358.827 102.723L358.906 103.72ZM372.346 102.664H373.346V101.896H372.346H371.346V102.664H372.346ZM372.346 101.896H373.346C373.346 99.3336 372.554 97.2281 370.906 95.7806C369.279 94.3522 366.967 93.696 364.186 93.696V94.696V95.696C366.684 95.696 368.452 96.2878 369.586 97.2834C370.698 98.2598 371.346 99.7544 371.346 101.896H372.346ZM364.186 94.696V93.696C360.962 93.696 358.326 94.312 356.47 95.6182C354.561 96.9614 353.586 98.9592 353.586 101.416H354.586H355.586C355.586 99.5527 356.29 98.1906 357.621 97.2538C359.005 96.28 361.17 95.696 364.186 95.696V94.696ZM354.586 101.416V100.416H342.298V101.416V102.416H354.586V101.416ZM342.298 101.416H343.298C343.298 96.2932 345.393 92.0952 349.099 89.1554C352.827 86.1984 358.252 84.464 364.954 84.464V83.464V82.464C357.927 82.464 352.025 84.2816 347.856 87.5886C343.666 90.9128 341.298 95.6908 341.298 101.416H342.298ZM364.954 83.464V84.464C371.732 84.464 376.897 86.3544 380.367 89.7797C383.836 93.2032 385.746 98.2932 385.746 104.968H386.746H387.746C387.746 97.9147 385.72 92.2528 381.772 88.3563C377.826 84.4616 372.096 82.464 364.954 82.464V83.464ZM386.746 104.968H385.746V133H386.746H387.746V104.968H386.746ZM386.746 133V132H373.69V133V134H386.746V133ZM373.69 133L374.678 132.85L373.718 126.514L372.73 126.664L371.741 126.814L372.701 133.15L373.69 133ZM372.73 126.664L371.785 126.335C371.132 128.213 369.407 129.944 366.869 131.218C364.346 132.485 361.119 133.248 357.658 133.248V134.248V135.248C361.397 135.248 364.937 134.427 367.767 133.006C370.581 131.592 372.791 129.531 373.674 126.993L372.73 126.664ZM362.842 123.304V124.304C365.823 124.304 368.473 123.572 370.398 122.003C372.351 120.41 373.442 118.046 373.442 115.048H372.442H371.442C371.442 117.522 370.564 119.286 369.134 120.453C367.674 121.644 365.524 122.304 362.842 122.304V123.304ZM372.442 115.048H373.442V112.456H372.442H371.442V115.048H372.442ZM372.442 112.456L372.352 111.46L364.864 112.132L364.954 113.128L365.043 114.124L372.531 113.452L372.442 112.456ZM364.954 113.128L364.865 112.132C361.629 112.422 359.25 112.938 357.665 113.875C356.849 114.358 356.219 114.965 355.802 115.724C355.386 116.481 355.218 117.322 355.218 118.216H356.218H357.218C357.218 117.574 357.337 117.083 357.555 116.688C357.77 116.295 358.118 115.93 358.683 115.597C359.857 114.902 361.847 114.41 365.043 114.124L364.954 113.128ZM356.218 118.216H355.218C355.218 120.16 355.824 121.768 357.228 122.849C358.577 123.886 360.498 124.304 362.842 124.304V123.304V122.304C360.673 122.304 359.282 121.906 358.447 121.263C357.668 120.664 357.218 119.728 357.218 118.216H356.218ZM432.869 89.416L432.082 90.0329L433.869 92.3129V89.416H432.869ZM432.869 60.616V59.616H431.869V60.616H432.869ZM447.653 60.616H448.653V59.616H447.653V60.616ZM447.653 133V134H448.653V133H447.653ZM433.733 133L432.741 133.124L432.85 134H433.733V133ZM432.965 126.856L433.958 126.732L433.593 123.812L432.103 126.35L432.965 126.856ZM417.509 134.248V133.248C410.845 133.248 405.438 130.895 401.688 126.782C397.93 122.66 395.757 116.679 395.757 109.288H394.757H393.757C393.757 117.065 396.048 123.564 400.21 128.13C404.381 132.705 410.349 135.248 417.509 135.248V134.248ZM394.757 109.288H395.757C395.757 101.852 397.977 95.6512 401.884 91.3219C405.78 87.0037 411.429 84.464 418.469 84.464V83.464V82.464C410.918 82.464 404.71 85.2043 400.399 89.9821C396.097 94.7488 393.757 101.46 393.757 109.288H394.757ZM418.469 83.464V84.464C424.206 84.464 429.538 86.7869 432.082 90.0329L432.869 89.416L433.656 88.7991C430.632 84.9411 424.637 82.464 418.469 82.464V83.464ZM432.869 89.416H433.869V60.616H432.869H431.869V89.416H432.869ZM432.869 60.616V61.616H447.653V60.616V59.616H432.869V60.616ZM447.653 60.616H446.653V133H447.653H448.653V60.616H447.653ZM447.653 133V132H433.733V133V134H447.653V133ZM433.733 133L434.726 132.876L433.958 126.732L432.965 126.856L431.973 126.98L432.741 133.124L433.733 133ZM432.965 126.856L432.103 126.35C429.741 130.374 424.179 133.248 417.509 133.248V134.248V135.248C424.664 135.248 431.006 132.17 433.828 127.362L432.965 126.856ZM421.061 120.712V121.712C424.755 121.712 427.95 120.425 430.222 118.113C432.494 115.802 433.773 112.539 433.773 108.712H432.773H431.773C431.773 112.085 430.653 114.822 428.796 116.711C426.94 118.599 424.279 119.712 421.061 119.712V120.712ZM432.773 108.712H433.773C433.773 104.885 432.494 101.622 430.222 99.311C427.95 96.9993 424.755 95.712 421.061 95.712V96.712V97.712C424.279 97.712 426.94 98.8247 428.796 100.713C430.653 102.602 431.773 105.339 431.773 108.712H432.773ZM421.061 96.712V95.712C417.314 95.712 414.182 97.0276 411.992 99.3641C409.808 101.693 408.637 104.953 408.637 108.712H409.637H410.637C410.637 105.367 411.675 102.627 413.451 100.732C415.22 98.8444 417.801 97.712 421.061 97.712V96.712ZM409.637 108.712H408.637C408.637 112.471 409.808 115.731 411.992 118.06C414.182 120.396 417.314 121.712 421.061 121.712V120.712V119.712C417.801 119.712 415.22 118.58 413.451 116.692C411.675 114.797 410.637 112.057 410.637 108.712H409.637ZM501.538 61.96H502.538V60.96H501.538V61.96ZM501.538 133V134H502.538V133H501.538ZM485.986 133H484.986V134H485.986V133ZM485.986 61.96V60.96H484.986V61.96H485.986ZM501.538 61.96H500.538V133H501.538H502.538V61.96H501.538ZM501.538 133V132H485.986V133V134H501.538V133ZM485.986 133H486.986V61.96H485.986H484.986V133H485.986ZM485.986 61.96V62.96H501.538V61.96V60.96H485.986V61.96ZM526.057 133V134H526.773L527.004 133.322L526.057 133ZM509.833 133L508.891 132.664L508.414 134H509.833V133ZM535.177 61.96V60.96H534.472L534.235 61.624L535.177 61.96ZM550.345 61.96L551.287 61.6251L551.051 60.96H550.345V61.96ZM575.593 133V134H577.009L576.535 132.665L575.593 133ZM559.081 133L558.132 133.316L558.36 134H559.081V133ZM554.089 118.024L555.037 117.708L554.81 117.024H554.089V118.024ZM531.145 118.024V117.024H530.428L530.198 117.702L531.145 118.024ZM540.745 89.8L541.693 90.118L541.693 90.1162L540.745 89.8ZM535.657 104.968L534.709 104.65L534.267 105.968H535.657V104.968ZM549.673 104.968V105.968H551.063L550.621 104.65L549.673 104.968ZM544.585 89.8L543.632 90.1048L543.637 90.118L544.585 89.8ZM542.665 82.888L543.651 82.7236L541.68 82.7142L542.665 82.888ZM526.057 133V132H509.833V133V134H526.057V133ZM509.833 133L510.775 133.336L536.119 62.296L535.177 61.96L534.235 61.624L508.891 132.664L509.833 133ZM535.177 61.96V62.96H550.345V61.96V60.96H535.177V61.96ZM550.345 61.96L549.402 62.2949L574.65 133.335L575.593 133L576.535 132.665L551.287 61.6251L550.345 61.96ZM575.593 133V132H559.081V133V134H575.593V133ZM559.081 133L560.029 132.684L555.037 117.708L554.089 118.024L553.14 118.34L558.132 133.316L559.081 133ZM554.089 118.024V117.024H531.145V118.024V119.024H554.089V118.024ZM531.145 118.024L530.198 117.702L525.11 132.678L526.057 133L527.004 133.322L532.092 118.346L531.145 118.024ZM540.745 89.8L539.797 89.482L534.709 104.65L535.657 104.968L536.605 105.286L541.693 90.118L540.745 89.8ZM535.657 104.968V105.968H549.673V104.968V103.968H535.657V104.968ZM549.673 104.968L550.621 104.65L545.533 89.482L544.585 89.8L543.637 90.118L548.725 105.286L549.673 104.968ZM544.585 89.8L545.537 89.4952C544.762 87.0718 543.925 84.3646 543.651 82.7236L542.665 82.888L541.678 83.0524C541.981 84.8674 542.872 87.7282 543.632 90.1048L544.585 89.8ZM542.665 82.888L541.68 82.7142C541.405 84.2708 540.657 86.9016 539.796 89.4838L540.745 89.8L541.693 90.1162C542.561 87.5144 543.348 84.7692 543.65 83.0618L542.665 82.888Z" fill="black" mask="url(#path-1-outside-1_58_83)"/>
<path d="M238.944 133V134H239.944V133H238.944ZM223.392 133H222.392V134H223.392V133ZM223.392 61.96V60.96H222.392V61.96H223.392ZM266.112 104.776L265.656 103.886L264.815 104.317L265.197 105.18L266.112 104.776ZM278.592 133V134H280.128L279.507 132.596L278.592 133ZM261.6 133L260.681 133.394L260.941 134H261.6V133ZM250.944 108.136L251.863 107.742L251.603 107.136H250.944V108.136ZM238.944 108.136V107.136H237.944V108.136H238.944ZM238.944 75.784V74.784H237.944V75.784H238.944ZM238.944 94.504H237.944V95.504H238.944V94.504ZM238.944 133V132H223.392V133V134H238.944V133ZM223.392 133H224.392V61.96H223.392H222.392V133H223.392ZM223.392 61.96V62.96H250.848V61.96V60.96H223.392V61.96ZM250.848 61.96V62.96C259.341 62.96 265.847 65.0134 270.216 68.7333C274.56 72.433 276.92 77.8916 276.92 85H277.92H278.92C278.92 77.4204 276.384 71.359 271.512 67.2106C266.665 63.0826 259.635 60.96 250.848 60.96V61.96ZM277.92 85H276.92C276.92 89.4633 275.968 93.214 274.11 96.3184C272.253 99.421 269.453 101.941 265.656 103.886L266.112 104.776L266.568 105.666C270.643 103.579 273.747 100.819 275.826 97.3456C277.904 93.874 278.92 89.7527 278.92 85H277.92ZM266.112 104.776L265.197 105.18L277.677 133.404L278.592 133L279.507 132.596L267.027 104.372L266.112 104.776ZM278.592 133V132H261.6V133V134H278.592V133ZM261.6 133L262.519 132.606L251.863 107.742L250.944 108.136L250.025 108.53L260.681 133.394L261.6 133ZM250.944 108.136V107.136H238.944V108.136V109.136H250.944V108.136ZM238.944 108.136H237.944V133H238.944H239.944V108.136H238.944ZM238.944 75.784H237.944V94.504H238.944H239.944V75.784H238.944ZM238.944 94.504V95.504H250.752V94.504V93.504H238.944V94.504ZM250.752 94.504V95.504C254.318 95.504 257.271 94.6 259.346 92.7698C261.438 90.9237 262.504 88.2511 262.504 85H261.504H260.504C260.504 87.7969 259.602 89.8763 258.022 91.2702C256.425 92.68 254.002 93.504 250.752 93.504V94.504ZM261.504 85H262.504C262.504 81.8056 261.491 79.1966 259.423 77.4043C257.378 75.6321 254.446 74.784 250.848 74.784V75.784V76.784C254.162 76.784 256.558 77.5679 258.113 78.9157C259.645 80.2434 260.504 82.2424 260.504 85H261.504ZM250.848 75.784V74.784H238.944V75.784V76.784H250.848V75.784ZM281.695 108.904H282.695C282.695 101.576 285.379 95.5096 289.869 91.2712C294.365 87.0278 300.733 84.56 308.191 84.56V83.56V82.56C300.289 82.56 293.409 85.1802 288.496 89.8168C283.579 94.4584 280.695 101.064 280.695 108.904H281.695ZM308.191 83.56V84.56C315.599 84.56 321.943 87.0268 326.427 91.2703C330.907 95.5089 333.591 101.576 333.591 108.904H334.591H335.591C335.591 101.064 332.707 94.459 327.802 89.8177C322.902 85.1812 316.047 82.56 308.191 82.56V83.56ZM334.591 108.904H333.591C333.591 116.232 330.907 122.274 326.429 126.488C321.946 130.707 315.602 133.152 308.191 133.152V134.152V135.152C316.044 135.152 322.9 132.557 327.8 127.944C332.707 123.326 335.591 116.744 335.591 108.904H334.591ZM308.191 134.152V133.152C300.73 133.152 294.362 130.707 289.867 126.487C285.378 122.273 282.695 116.231 282.695 108.904H281.695H280.695C280.695 116.745 283.579 123.327 288.498 127.945C293.412 132.557 300.291 135.152 308.191 135.152V134.152ZM296.575 108.808H295.575C295.575 112.674 296.824 115.96 299.071 118.287C301.321 120.616 304.496 121.904 308.191 121.904V120.904V119.904C304.974 119.904 302.34 118.792 300.51 116.897C298.677 115 297.575 112.238 297.575 108.808H296.575ZM308.191 120.904V121.904C311.842 121.904 314.992 120.613 317.228 118.285C319.461 115.959 320.711 112.674 320.711 108.808H319.711H318.711C318.711 112.238 317.608 115.001 315.785 116.899C313.965 118.795 311.356 119.904 308.191 119.904V120.904ZM319.711 108.808H320.711C320.711 104.987 319.459 101.726 317.226 99.4133C314.991 97.0986 311.841 95.808 308.191 95.808V96.808V97.808C311.356 97.808 313.967 98.9174 315.787 100.803C317.61 102.69 318.711 105.429 318.711 108.808H319.711ZM308.191 96.808V95.808C304.496 95.808 301.323 97.096 299.073 99.4112C296.827 101.724 295.575 104.987 295.575 108.808H296.575H297.575C297.575 105.429 298.675 102.692 300.508 100.805C302.339 98.92 304.974 97.808 308.191 97.808V96.808ZM358.906 103.72L358.981 104.717L358.984 104.717L358.906 103.72ZM372.346 102.664L372.424 103.661L373.346 103.589V102.664H372.346ZM354.586 101.416V102.416H355.586V101.416H354.586ZM342.298 101.416H341.298V102.416H342.298V101.416ZM386.746 133V134H387.746V133H386.746ZM373.69 133L372.701 133.15L372.83 134H373.69V133ZM372.73 126.664L373.718 126.514L371.785 126.335L372.73 126.664ZM372.442 112.456H373.442V111.362L372.352 111.46L372.442 112.456ZM364.954 113.128L365.043 114.124L365.043 114.124L364.954 113.128ZM357.658 134.248V133.248C352.762 133.248 348.899 131.819 346.268 129.365C343.645 126.918 342.146 123.359 342.146 118.888H341.146H340.146C340.146 123.825 341.815 127.946 344.904 130.827C347.985 133.701 352.377 135.248 357.658 135.248V134.248ZM341.146 118.888H342.146C342.146 114.73 343.603 111.444 346.358 109.074C349.142 106.68 353.349 105.14 358.981 104.717L358.906 103.72L358.831 102.723C352.942 103.164 348.27 104.792 345.054 107.558C341.809 110.348 340.146 114.214 340.146 118.888H341.146ZM358.906 103.72L358.984 104.717L372.424 103.661L372.346 102.664L372.267 101.667L358.827 102.723L358.906 103.72ZM372.346 102.664H373.346V101.896H372.346H371.346V102.664H372.346ZM372.346 101.896H373.346C373.346 99.3336 372.554 97.2281 370.906 95.7806C369.279 94.3522 366.967 93.696 364.186 93.696V94.696V95.696C366.684 95.696 368.452 96.2878 369.586 97.2834C370.698 98.2598 371.346 99.7544 371.346 101.896H372.346ZM364.186 94.696V93.696C360.962 93.696 358.326 94.312 356.47 95.6182C354.561 96.9614 353.586 98.9592 353.586 101.416H354.586H355.586C355.586 99.5527 356.29 98.1906 357.621 97.2538C359.005 96.28 361.17 95.696 364.186 95.696V94.696ZM354.586 101.416V100.416H342.298V101.416V102.416H354.586V101.416ZM342.298 101.416H343.298C343.298 96.2932 345.393 92.0952 349.099 89.1554C352.827 86.1984 358.252 84.464 364.954 84.464V83.464V82.464C357.927 82.464 352.025 84.2816 347.856 87.5886C343.666 90.9128 341.298 95.6908 341.298 101.416H342.298ZM364.954 83.464V84.464C371.732 84.464 376.897 86.3544 380.367 89.7797C383.836 93.2032 385.746 98.2932 385.746 104.968H386.746H387.746C387.746 97.9147 385.72 92.2528 381.772 88.3563C377.826 84.4616 372.096 82.464 364.954 82.464V83.464ZM386.746 104.968H385.746V133H386.746H387.746V104.968H386.746ZM386.746 133V132H373.69V133V134H386.746V133ZM373.69 133L374.678 132.85L373.718 126.514L372.73 126.664L371.741 126.814L372.701 133.15L373.69 133ZM372.73 126.664L371.785 126.335C371.132 128.213 369.407 129.944 366.869 131.218C364.346 132.485 361.119 133.248 357.658 133.248V134.248V135.248C361.397 135.248 364.937 134.427 367.767 133.006C370.581 131.592 372.791 129.531 373.674 126.993L372.73 126.664ZM362.842 123.304V124.304C365.823 124.304 368.473 123.572 370.398 122.003C372.351 120.41 373.442 118.046 373.442 115.048H372.442H371.442C371.442 117.522 370.564 119.286 369.134 120.453C367.674 121.644 365.524 122.304 362.842 122.304V123.304ZM372.442 115.048H373.442V112.456H372.442H371.442V115.048H372.442ZM372.442 112.456L372.352 111.46L364.864 112.132L364.954 113.128L365.043 114.124L372.531 113.452L372.442 112.456ZM364.954 113.128L364.865 112.132C361.629 112.422 359.25 112.938 357.665 113.875C356.849 114.358 356.219 114.965 355.802 115.724C355.386 116.481 355.218 117.322 355.218 118.216H356.218H357.218C357.218 117.574 357.337 117.083 357.555 116.688C357.77 116.295 358.118 115.93 358.683 115.597C359.857 114.902 361.847 114.41 365.043 114.124L364.954 113.128ZM356.218 118.216H355.218C355.218 120.16 355.824 121.768 357.228 122.849C358.577 123.886 360.498 124.304 362.842 124.304V123.304V122.304C360.673 122.304 359.282 121.906 358.447 121.263C357.668 120.664 357.218 119.728 357.218 118.216H356.218ZM432.869 89.416L432.082 90.0329L433.869 92.3129V89.416H432.869ZM432.869 60.616V59.616H431.869V60.616H432.869ZM447.653 60.616H448.653V59.616H447.653V60.616ZM447.653 133V134H448.653V133H447.653ZM433.733 133L432.741 133.124L432.85 134H433.733V133ZM432.965 126.856L433.958 126.732L433.593 123.812L432.103 126.35L432.965 126.856ZM417.509 134.248V133.248C410.845 133.248 405.438 130.895 401.688 126.782C397.93 122.66 395.757 116.679 395.757 109.288H394.757H393.757C393.757 117.065 396.048 123.564 400.21 128.13C404.381 132.705 410.349 135.248 417.509 135.248V134.248ZM394.757 109.288H395.757C395.757 101.852 397.977 95.6512 401.884 91.3219C405.78 87.0037 411.429 84.464 418.469 84.464V83.464V82.464C410.918 82.464 404.71 85.2043 400.399 89.9821C396.097 94.7488 393.757 101.46 393.757 109.288H394.757ZM418.469 83.464V84.464C424.206 84.464 429.538 86.7869 432.082 90.0329L432.869 89.416L433.656 88.7991C430.632 84.9411 424.637 82.464 418.469 82.464V83.464ZM432.869 89.416H433.869V60.616H432.869H431.869V89.416H432.869ZM432.869 60.616V61.616H447.653V60.616V59.616H432.869V60.616ZM447.653 60.616H446.653V133H447.653H448.653V60.616H447.653ZM447.653 133V132H433.733V133V134H447.653V133ZM433.733 133L434.726 132.876L433.958 126.732L432.965 126.856L431.973 126.98L432.741 133.124L433.733 133ZM432.965 126.856L432.103 126.35C429.741 130.374 424.179 133.248 417.509 133.248V134.248V135.248C424.664 135.248 431.006 132.17 433.828 127.362L432.965 126.856ZM421.061 120.712V121.712C424.755 121.712 427.95 120.425 430.222 118.113C432.494 115.802 433.773 112.539 433.773 108.712H432.773H431.773C431.773 112.085 430.653 114.822 428.796 116.711C426.94 118.599 424.279 119.712 421.061 119.712V120.712ZM432.773 108.712H433.773C433.773 104.885 432.494 101.622 430.222 99.311C427.95 96.9993 424.755 95.712 421.061 95.712V96.712V97.712C424.279 97.712 426.94 98.8247 428.796 100.713C430.653 102.602 431.773 105.339 431.773 108.712H432.773ZM421.061 96.712V95.712C417.314 95.712 414.182 97.0276 411.992 99.3641C409.808 101.693 408.637 104.953 408.637 108.712H409.637H410.637C410.637 105.367 411.675 102.627 413.451 100.732C415.22 98.8444 417.801 97.712 421.061 97.712V96.712ZM409.637 108.712H408.637C408.637 112.471 409.808 115.731 411.992 118.06C414.182 120.396 417.314 121.712 421.061 121.712V120.712V119.712C417.801 119.712 415.22 118.58 413.451 116.692C411.675 114.797 410.637 112.057 410.637 108.712H409.637ZM501.538 61.96H502.538V60.96H501.538V61.96ZM501.538 133V134H502.538V133H501.538ZM485.986 133H484.986V134H485.986V133ZM485.986 61.96V60.96H484.986V61.96H485.986ZM501.538 61.96H500.538V133H501.538H502.538V61.96H501.538ZM501.538 133V132H485.986V133V134H501.538V133ZM485.986 133H486.986V61.96H485.986H484.986V133H485.986ZM485.986 61.96V62.96H501.538V61.96V60.96H485.986V61.96ZM526.057 133V134H526.773L527.004 133.322L526.057 133ZM509.833 133L508.891 132.664L508.414 134H509.833V133ZM535.177 61.96V60.96H534.472L534.235 61.624L535.177 61.96ZM550.345 61.96L551.287 61.6251L551.051 60.96H550.345V61.96ZM575.593 133V134H577.009L576.535 132.665L575.593 133ZM559.081 133L558.132 133.316L558.36 134H559.081V133ZM554.089 118.024L555.037 117.708L554.81 117.024H554.089V118.024ZM531.145 118.024V117.024H530.428L530.198 117.702L531.145 118.024ZM540.745 89.8L541.693 90.118L541.693 90.1162L540.745 89.8ZM535.657 104.968L534.709 104.65L534.267 105.968H535.657V104.968ZM549.673 104.968V105.968H551.063L550.621 104.65L549.673 104.968ZM544.585 89.8L543.632 90.1048L543.637 90.118L544.585 89.8ZM542.665 82.888L543.651 82.7236L541.68 82.7142L542.665 82.888ZM526.057 133V132H509.833V133V134H526.057V133ZM509.833 133L510.775 133.336L536.119 62.296L535.177 61.96L534.235 61.624L508.891 132.664L509.833 133ZM535.177 61.96V62.96H550.345V61.96V60.96H535.177V61.96ZM550.345 61.96L549.402 62.2949L574.65 133.335L575.593 133L576.535 132.665L551.287 61.6251L550.345 61.96ZM575.593 133V132H559.081V133V134H575.593V133ZM559.081 133L560.029 132.684L555.037 117.708L554.089 118.024L553.14 118.34L558.132 133.316L559.081 133ZM554.089 118.024V117.024H531.145V118.024V119.024H554.089V118.024ZM531.145 118.024L530.198 117.702L525.11 132.678L526.057 133L527.004 133.322L532.092 118.346L531.145 118.024ZM540.745 89.8L539.797 89.482L534.709 104.65L535.657 104.968L536.605 105.286L541.693 90.118L540.745 89.8ZM535.657 104.968V105.968H549.673V104.968V103.968H535.657V104.968ZM549.673 104.968L550.621 104.65L545.533 89.482L544.585 89.8L543.637 90.118L548.725 105.286L549.673 104.968ZM544.585 89.8L545.537 89.4952C544.762 87.0718 543.925 84.3646 543.651 82.7236L542.665 82.888L541.678 83.0524C541.981 84.8674 542.872 87.7282 543.632 90.1048L544.585 89.8ZM542.665 82.888L541.68 82.7142C541.405 84.2708 540.657 86.9016 539.796 89.4838L540.745 89.8L541.693 90.1162C542.561 87.5144 543.348 84.7692 543.65 83.0618L542.665 82.888Z" fill="black" fill-opacity="0.2" mask="url(#path-1-outside-1_58_83)"/>
<path d="M238.944 133V134H239.944V133H238.944ZM223.392 133H222.392V134H223.392V133ZM223.392 61.96V60.96H222.392V61.96H223.392ZM266.112 104.776L265.656 103.886L264.815 104.317L265.197 105.18L266.112 104.776ZM278.592 133V134H280.128L279.507 132.596L278.592 133ZM261.6 133L260.681 133.394L260.941 134H261.6V133ZM250.944 108.136L251.863 107.742L251.603 107.136H250.944V108.136ZM238.944 108.136V107.136H237.944V108.136H238.944ZM238.944 75.784V74.784H237.944V75.784H238.944ZM238.944 94.504H237.944V95.504H238.944V94.504ZM238.944 133V132H223.392V133V134H238.944V133ZM223.392 133H224.392V61.96H223.392H222.392V133H223.392ZM223.392 61.96V62.96H250.848V61.96V60.96H223.392V61.96ZM250.848 61.96V62.96C259.341 62.96 265.847 65.0134 270.216 68.7333C274.56 72.433 276.92 77.8916 276.92 85H277.92H278.92C278.92 77.4204 276.384 71.359 271.512 67.2106C266.665 63.0826 259.635 60.96 250.848 60.96V61.96ZM277.92 85H276.92C276.92 89.4633 275.968 93.214 274.11 96.3184C272.253 99.421 269.453 101.941 265.656 103.886L266.112 104.776L266.568 105.666C270.643 103.579 273.747 100.819 275.826 97.3456C277.904 93.874 278.92 89.7527 278.92 85H277.92ZM266.112 104.776L265.197 105.18L277.677 133.404L278.592 133L279.507 132.596L267.027 104.372L266.112 104.776ZM278.592 133V132H261.6V133V134H278.592V133ZM261.6 133L262.519 132.606L251.863 107.742L250.944 108.136L250.025 108.53L260.681 133.394L261.6 133ZM250.944 108.136V107.136H238.944V108.136V109.136H250.944V108.136ZM238.944 108.136H237.944V133H238.944H239.944V108.136H238.944ZM238.944 75.784H237.944V94.504H238.944H239.944V75.784H238.944ZM238.944 94.504V95.504H250.752V94.504V93.504H238.944V94.504ZM250.752 94.504V95.504C254.318 95.504 257.271 94.6 259.346 92.7698C261.438 90.9237 262.504 88.2511 262.504 85H261.504H260.504C260.504 87.7969 259.602 89.8763 258.022 91.2702C256.425 92.68 254.002 93.504 250.752 93.504V94.504ZM261.504 85H262.504C262.504 81.8056 261.491 79.1966 259.423 77.4043C257.378 75.6321 254.446 74.784 250.848 74.784V75.784V76.784C254.162 76.784 256.558 77.5679 258.113 78.9157C259.645 80.2434 260.504 82.2424 260.504 85H261.504ZM250.848 75.784V74.784H238.944V75.784V76.784H250.848V75.784ZM281.695 108.904H282.695C282.695 101.576 285.379 95.5096 289.869 91.2712C294.365 87.0278 300.733 84.56 308.191 84.56V83.56V82.56C300.289 82.56 293.409 85.1802 288.496 89.8168C283.579 94.4584 280.695 101.064 280.695 108.904H281.695ZM308.191 83.56V84.56C315.599 84.56 321.943 87.0268 326.427 91.2703C330.907 95.5089 333.591 101.576 333.591 108.904H334.591H335.591C335.591 101.064 332.707 94.459 327.802 89.8177C322.902 85.1812 316.047 82.56 308.191 82.56V83.56ZM334.591 108.904H333.591C333.591 116.232 330.907 122.274 326.429 126.488C321.946 130.707 315.602 133.152 308.191 133.152V134.152V135.152C316.044 135.152 322.9 132.557 327.8 127.944C332.707 123.326 335.591 116.744 335.591 108.904H334.591ZM308.191 134.152V133.152C300.73 133.152 294.362 130.707 289.867 126.487C285.378 122.273 282.695 116.231 282.695 108.904H281.695H280.695C280.695 116.745 283.579 123.327 288.498 127.945C293.412 132.557 300.291 135.152 308.191 135.152V134.152ZM296.575 108.808H295.575C295.575 112.674 296.824 115.96 299.071 118.287C301.321 120.616 304.496 121.904 308.191 121.904V120.904V119.904C304.974 119.904 302.34 118.792 300.51 116.897C298.677 115 297.575 112.238 297.575 108.808H296.575ZM308.191 120.904V121.904C311.842 121.904 314.992 120.613 317.228 118.285C319.461 115.959 320.711 112.674 320.711 108.808H319.711H318.711C318.711 112.238 317.608 115.001 315.785 116.899C313.965 118.795 311.356 119.904 308.191 119.904V120.904ZM319.711 108.808H320.711C320.711 104.987 319.459 101.726 317.226 99.4133C314.991 97.0986 311.841 95.808 308.191 95.808V96.808V97.808C311.356 97.808 313.967 98.9174 315.787 100.803C317.61 102.69 318.711 105.429 318.711 108.808H319.711ZM308.191 96.808V95.808C304.496 95.808 301.323 97.096 299.073 99.4112C296.827 101.724 295.575 104.987 295.575 108.808H296.575H297.575C297.575 105.429 298.675 102.692 300.508 100.805C302.339 98.92 304.974 97.808 308.191 97.808V96.808ZM358.906 103.72L358.981 104.717L358.984 104.717L358.906 103.72ZM372.346 102.664L372.424 103.661L373.346 103.589V102.664H372.346ZM354.586 101.416V102.416H355.586V101.416H354.586ZM342.298 101.416H341.298V102.416H342.298V101.416ZM386.746 133V134H387.746V133H386.746ZM373.69 133L372.701 133.15L372.83 134H373.69V133ZM372.73 126.664L373.718 126.514L371.785 126.335L372.73 126.664ZM372.442 112.456H373.442V111.362L372.352 111.46L372.442 112.456ZM364.954 113.128L365.043 114.124L365.043 114.124L364.954 113.128ZM357.658 134.248V133.248C352.762 133.248 348.899 131.819 346.268 129.365C343.645 126.918 342.146 123.359 342.146 118.888H341.146H340.146C340.146 123.825 341.815 127.946 344.904 130.827C347.985 133.701 352.377 135.248 357.658 135.248V134.248ZM341.146 118.888H342.146C342.146 114.73 343.603 111.444 346.358 109.074C349.142 106.68 353.349 105.14 358.981 104.717L358.906 103.72L358.831 102.723C352.942 103.164 348.27 104.792 345.054 107.558C341.809 110.348 340.146 114.214 340.146 118.888H341.146ZM358.906 103.72L358.984 104.717L372.424 103.661L372.346 102.664L372.267 101.667L358.827 102.723L358.906 103.72ZM372.346 102.664H373.346V101.896H372.346H371.346V102.664H372.346ZM372.346 101.896H373.346C373.346 99.3336 372.554 97.2281 370.906 95.7806C369.279 94.3522 366.967 93.696 364.186 93.696V94.696V95.696C366.684 95.696 368.452 96.2878 369.586 97.2834C370.698 98.2598 371.346 99.7544 371.346 101.896H372.346ZM364.186 94.696V93.696C360.962 93.696 358.326 94.312 356.47 95.6182C354.561 96.9614 353.586 98.9592 353.586 101.416H354.586H355.586C355.586 99.5527 356.29 98.1906 357.621 97.2538C359.005 96.28 361.17 95.696 364.186 95.696V94.696ZM354.586 101.416V100.416H342.298V101.416V102.416H354.586V101.416ZM342.298 101.416H343.298C343.298 96.2932 345.393 92.0952 349.099 89.1554C352.827 86.1984 358.252 84.464 364.954 84.464V83.464V82.464C357.927 82.464 352.025 84.2816 347.856 87.5886C343.666 90.9128 341.298 95.6908 341.298 101.416H342.298ZM364.954 83.464V84.464C371.732 84.464 376.897 86.3544 380.367 89.7797C383.836 93.2032 385.746 98.2932 385.746 104.968H386.746H387.746C387.746 97.9147 385.72 92.2528 381.772 88.3563C377.826 84.4616 372.096 82.464 364.954 82.464V83.464ZM386.746 104.968H385.746V133H386.746H387.746V104.968H386.746ZM386.746 133V132H373.69V133V134H386.746V133ZM373.69 133L374.678 132.85L373.718 126.514L372.73 126.664L371.741 126.814L372.701 133.15L373.69 133ZM372.73 126.664L371.785 126.335C371.132 128.213 369.407 129.944 366.869 131.218C364.346 132.485 361.119 133.248 357.658 133.248V134.248V135.248C361.397 135.248 364.937 134.427 367.767 133.006C370.581 131.592 372.791 129.531 373.674 126.993L372.73 126.664ZM362.842 123.304V124.304C365.823 124.304 368.473 123.572 370.398 122.003C372.351 120.41 373.442 118.046 373.442 115.048H372.442H371.442C371.442 117.522 370.564 119.286 369.134 120.453C367.674 121.644 365.524 122.304 362.842 122.304V123.304ZM372.442 115.048H373.442V112.456H372.442H371.442V115.048H372.442ZM372.442 112.456L372.352 111.46L364.864 112.132L364.954 113.128L365.043 114.124L372.531 113.452L372.442 112.456ZM364.954 113.128L364.865 112.132C361.629 112.422 359.25 112.938 357.665 113.875C356.849 114.358 356.219 114.965 355.802 115.724C355.386 116.481 355.218 117.322 355.218 118.216H356.218H357.218C357.218 117.574 357.337 117.083 357.555 116.688C357.77 116.295 358.118 115.93 358.683 115.597C359.857 114.902 361.847 114.41 365.043 114.124L364.954 113.128ZM356.218 118.216H355.218C355.218 120.16 355.824 121.768 357.228 122.849C358.577 123.886 360.498 124.304 362.842 124.304V123.304V122.304C360.673 122.304 359.282 121.906 358.447 121.263C357.668 120.664 357.218 119.728 357.218 118.216H356.218ZM432.869 89.416L432.082 90.0329L433.869 92.3129V89.416H432.869ZM432.869 60.616V59.616H431.869V60.616H432.869ZM447.653 60.616H448.653V59.616H447.653V60.616ZM447.653 133V134H448.653V133H447.653ZM433.733 133L432.741 133.124L432.85 134H433.733V133ZM432.965 126.856L433.958 126.732L433.593 123.812L432.103 126.35L432.965 126.856ZM417.509 134.248V133.248C410.845 133.248 405.438 130.895 401.688 126.782C397.93 122.66 395.757 116.679 395.757 109.288H394.757H393.757C393.757 117.065 396.048 123.564 400.21 128.13C404.381 132.705 410.349 135.248 417.509 135.248V134.248ZM394.757 109.288H395.757C395.757 101.852 397.977 95.6512 401.884 91.3219C405.78 87.0037 411.429 84.464 418.469 84.464V83.464V82.464C410.918 82.464 404.71 85.2043 400.399 89.9821C396.097 94.7488 393.757 101.46 393.757 109.288H394.757ZM418.469 83.464V84.464C424.206 84.464 429.538 86.7869 432.082 90.0329L432.869 89.416L433.656 88.7991C430.632 84.9411 424.637 82.464 418.469 82.464V83.464ZM432.869 89.416H433.869V60.616H432.869H431.869V89.416H432.869ZM432.869 60.616V61.616H447.653V60.616V59.616H432.869V60.616ZM447.653 60.616H446.653V133H447.653H448.653V60.616H447.653ZM447.653 133V132H433.733V133V134H447.653V133ZM433.733 133L434.726 132.876L433.958 126.732L432.965 126.856L431.973 126.98L432.741 133.124L433.733 133ZM432.965 126.856L432.103 126.35C429.741 130.374 424.179 133.248 417.509 133.248V134.248V135.248C424.664 135.248 431.006 132.17 433.828 127.362L432.965 126.856ZM421.061 120.712V121.712C424.755 121.712 427.95 120.425 430.222 118.113C432.494 115.802 433.773 112.539 433.773 108.712H432.773H431.773C431.773 112.085 430.653 114.822 428.796 116.711C426.94 118.599 424.279 119.712 421.061 119.712V120.712ZM432.773 108.712H433.773C433.773 104.885 432.494 101.622 430.222 99.311C427.95 96.9993 424.755 95.712 421.061 95.712V96.712V97.712C424.279 97.712 426.94 98.8247 428.796 100.713C430.653 102.602 431.773 105.339 431.773 108.712H432.773ZM421.061 96.712V95.712C417.314 95.712 414.182 97.0276 411.992 99.3641C409.808 101.693 408.637 104.953 408.637 108.712H409.637H410.637C410.637 105.367 411.675 102.627 413.451 100.732C415.22 98.8444 417.801 97.712 421.061 97.712V96.712ZM409.637 108.712H408.637C408.637 112.471 409.808 115.731 411.992 118.06C414.182 120.396 417.314 121.712 421.061 121.712V120.712V119.712C417.801 119.712 415.22 118.58 413.451 116.692C411.675 114.797 410.637 112.057 410.637 108.712H409.637ZM501.538 61.96H502.538V60.96H501.538V61.96ZM501.538 133V134H502.538V133H501.538ZM485.986 133H484.986V134H485.986V133ZM485.986 61.96V60.96H484.986V61.96H485.986ZM501.538 61.96H500.538V133H501.538H502.538V61.96H501.538ZM501.538 133V132H485.986V133V134H501.538V133ZM485.986 133H486.986V61.96H485.986H484.986V133H485.986ZM485.986 61.96V62.96H501.538V61.96V60.96H485.986V61.96ZM526.057 133V134H526.773L527.004 133.322L526.057 133ZM509.833 133L508.891 132.664L508.414 134H509.833V133ZM535.177 61.96V60.96H534.472L534.235 61.624L535.177 61.96ZM550.345 61.96L551.287 61.6251L551.051 60.96H550.345V61.96ZM575.593 133V134H577.009L576.535 132.665L575.593 133ZM559.081 133L558.132 133.316L558.36 134H559.081V133ZM554.089 118.024L555.037 117.708L554.81 117.024H554.089V118.024ZM531.145 118.024V117.024H530.428L530.198 117.702L531.145 118.024ZM540.745 89.8L541.693 90.118L541.693 90.1162L540.745 89.8ZM535.657 104.968L534.709 104.65L534.267 105.968H535.657V104.968ZM549.673 104.968V105.968H551.063L550.621 104.65L549.673 104.968ZM544.585 89.8L543.632 90.1048L543.637 90.118L544.585 89.8ZM542.665 82.888L543.651 82.7236L541.68 82.7142L542.665 82.888ZM526.057 133V132H509.833V133V134H526.057V133ZM509.833 133L510.775 133.336L536.119 62.296L535.177 61.96L534.235 61.624L508.891 132.664L509.833 133ZM535.177 61.96V62.96H550.345V61.96V60.96H535.177V61.96ZM550.345 61.96L549.402 62.2949L574.65 133.335L575.593 133L576.535 132.665L551.287 61.6251L550.345 61.96ZM575.593 133V132H559.081V133V134H575.593V133ZM559.081 133L560.029 132.684L555.037 117.708L554.089 118.024L553.14 118.34L558.132 133.316L559.081 133ZM554.089 118.024V117.024H531.145V118.024V119.024H554.089V118.024ZM531.145 118.024L530.198 117.702L525.11 132.678L526.057 133L527.004 133.322L532.092 118.346L531.145 118.024ZM540.745 89.8L539.797 89.482L534.709 104.65L535.657 104.968L536.605 105.286L541.693 90.118L540.745 89.8ZM535.657 104.968V105.968H549.673V104.968V103.968H535.657V104.968ZM549.673 104.968L550.621 104.65L545.533 89.482L544.585 89.8L543.637 90.118L548.725 105.286L549.673 104.968ZM544.585 89.8L545.537 89.4952C544.762 87.0718 543.925 84.3646 543.651 82.7236L542.665 82.888L541.678 83.0524C541.981 84.8674 542.872 87.7282 543.632 90.1048L544.585 89.8ZM542.665 82.888L541.68 82.7142C541.405 84.2708 540.657 86.9016 539.796 89.4838L540.745 89.8L541.693 90.1162C542.561 87.5144 543.348 84.7692 543.65 83.0618L542.665 82.888Z" fill="black" fill-opacity="0.2" mask="url(#path-1-outside-1_58_83)"/>
<g clip-path="url(#clip0_58_83)">
<path d="M90.3092 191.597C86.7086 191.392 83.5052 191.047 80.2506 190.509C79.8662 190.445 79.1999 190.343 78.7771 190.279C78.3542 190.215 77.8417 190.125 77.6367 190.074L77.2779 189.972L77.3548 188.872C77.5341 186.338 77.5982 173.991 77.4445 170.179C77.1113 161.657 76.4578 153.584 75.6378 148.108C75.5737 147.686 75.4584 146.88 75.3815 146.317C75.2149 145.165 74.8177 142.965 74.523 141.519C74.4077 140.994 74.3052 140.418 74.2667 140.239C74.2026 139.894 73.7798 138.051 73.5876 137.271C73.2801 136.068 73.1904 135.748 72.806 134.482C71.5887 130.362 69.7051 125.948 67.9369 123.056C67.2706 121.994 65.7201 119.781 65.2973 119.32C65.1692 119.179 64.836 118.77 64.5541 118.425C63.8878 117.593 62.0811 115.802 61.0304 114.906C60.5691 114.522 60.1719 114.177 60.1335 114.126C60.095 114.087 59.6722 113.754 59.1724 113.396C58.6855 113.038 58.2243 112.693 58.1474 112.641C58.0833 112.577 57.7886 112.385 57.5067 112.206C54.9953 110.581 52.3941 109.34 49.4342 108.355C47.871 107.843 44.7829 107.127 42.8353 106.845C39.6832 106.372 38.2737 106.334 19.1816 106.334H0.461134L0.307375 104.709C-0.0385891 100.858 -0.0898438 99.706 -0.0898438 95.0872C-0.0898438 90.5195 -0.0257764 88.9969 0.29456 85.5424C0.563643 82.766 0.986489 79.8744 1.53747 77.1619C1.71686 76.2791 1.89625 75.4091 1.92187 75.2172L1.98594 74.8589H17.3877C26.024 74.8589 33.8402 74.8077 35.2113 74.731C41.4002 74.3983 43.0659 74.2704 45.1161 73.9633C45.5517 73.8865 46.2949 73.7714 46.7818 73.7074C49.9852 73.2084 52.9195 72.5815 54.8799 71.9801C56.1613 71.5835 57.1223 71.2636 57.3786 71.1485C57.5195 71.0973 57.8398 70.9822 58.0833 70.8926C58.3268 70.803 58.6471 70.6879 58.788 70.6367C58.929 70.5727 59.4543 70.3808 59.9413 70.1889C61.5942 69.562 64.49 68.1801 66.0789 67.2845C67.1168 66.696 68.7185 65.698 69.4232 65.2118C69.987 64.8152 72.3703 63.0367 72.4344 62.9727C72.4728 62.9344 72.87 62.5761 73.3313 62.1923C73.7798 61.8084 74.3436 61.3222 74.5614 61.1047C74.7793 60.9 75.2662 60.4266 75.6506 60.0684C76.9575 58.8273 78.7899 56.8825 79.8534 55.6031C81.3013 53.8502 81.2757 53.8886 81.8651 53.1081C83.0824 51.4576 83.4155 50.9842 83.5821 50.6771C83.6718 50.498 83.7871 50.3317 83.8256 50.2933C84.0562 50.1142 85.9013 47.0051 86.9392 45.0475C88.2718 42.5398 88.8997 41.2347 89.9504 38.7782C90.2707 38.0361 90.6167 37.23 90.7192 36.9869C91.1164 36.0657 91.2318 35.7586 91.6418 34.6583C91.7955 34.2489 92.0262 33.6091 92.1543 33.2509C92.2953 32.8799 92.59 31.997 92.8206 31.2933C93.0384 30.5896 93.2691 29.8987 93.3203 29.758C93.3716 29.6172 93.4869 29.2718 93.5638 28.9903C93.6407 28.7088 93.8201 28.0819 93.961 27.5829C94.1148 27.0967 94.2942 26.457 94.371 26.1755C94.4479 25.894 94.5504 25.523 94.6017 25.3438C94.6658 25.1647 94.7939 24.6529 94.9092 24.1923C95.0117 23.7317 95.2167 22.8745 95.3577 22.2731C95.5755 21.3391 95.819 20.1492 96.3828 17.2193C97.2285 12.8435 98.0357 6.06239 98.2663 1.32839L98.356 -0.373291H99.0095C99.7143 -0.373291 104.34 -0.0406324 105.173 0.0617244C105.455 0.100108 106.262 0.189671 106.967 0.266439C107.671 0.343206 108.568 0.458358 108.953 0.522331C111.067 0.867785 111.528 0.957348 111.592 1.05971C111.631 1.12368 111.605 1.7634 111.528 2.4799C111.451 3.1964 111.336 4.45027 111.259 5.25633C110.836 9.83679 110.285 14.0078 109.722 17.0274C109.658 17.3472 109.542 17.9742 109.465 18.4348C109.376 18.8954 109.26 19.4455 109.209 19.6502C109.158 19.8678 109.042 20.3795 108.953 20.8018C108.863 21.224 108.645 22.1196 108.466 22.7849C108.299 23.4502 108.107 24.2051 108.056 24.4482C107.825 25.395 106.941 28.4401 106.505 29.758C106.364 30.1802 106.211 30.7048 106.147 30.9095C106.083 31.127 105.852 31.8947 105.634 32.6368C105.403 33.3788 105.122 34.3512 104.981 34.8118C104.378 36.795 103.135 41.7721 101.918 46.9667C99.7271 56.3707 98.5739 67.2717 98.5739 78.3262C98.5739 84.8899 99.0223 93.0272 99.7271 99.2326C99.7911 99.7956 99.9065 100.832 99.9833 101.536C100.06 102.239 100.176 103.161 100.24 103.583C100.304 104.005 100.419 104.837 100.496 105.438C100.56 106.039 100.739 107.357 100.88 108.381C101.021 109.404 101.201 110.697 101.278 111.26C101.342 111.822 101.457 112.654 101.521 113.115C101.585 113.575 101.7 114.407 101.777 114.97C101.854 115.533 101.969 116.339 102.034 116.761C102.174 117.657 102.597 120.868 102.802 122.519C102.879 123.159 102.995 124.105 103.059 124.63C103.123 125.154 103.238 126.114 103.315 126.741C103.392 127.381 103.507 128.328 103.571 128.852C103.635 129.377 103.751 130.362 103.827 131.027C103.904 131.693 104.02 132.678 104.084 133.202C104.148 133.727 104.263 134.763 104.34 135.505C104.417 136.247 104.532 137.373 104.609 138C104.968 141.237 105.173 143.182 105.365 145.229C105.442 146.035 105.557 147.225 105.621 147.852C105.685 148.492 105.801 149.694 105.878 150.539C105.954 151.383 106.07 152.676 106.134 153.418C106.441 156.821 106.723 160.698 106.903 163.781C106.979 165.086 107.095 167.134 107.159 168.323C107.53 174.823 107.595 176.768 107.595 182.142C107.607 185.379 107.556 188.692 107.505 189.511L107.39 190.995L105.903 191.149C105.07 191.239 103.917 191.354 103.315 191.43C102.264 191.558 91.898 191.686 90.3092 191.597ZM92.8591 179.775C93.4613 179.557 93.9098 178.93 94.102 178.073C94.3454 177.011 94.3454 167.658 94.1148 166.596C93.9354 165.803 93.5894 165.329 92.9616 165.01C92.3978 164.715 91.8852 164.843 91.2446 165.419C90.4629 166.123 90.4117 166.353 90.5398 168.771C90.5911 169.936 90.6167 172.469 90.5911 174.414C90.5526 176.358 90.5654 178.098 90.5911 178.278C90.6295 178.457 90.8602 178.853 91.1164 179.135C91.7315 179.864 92.1928 180.03 92.8591 179.775ZM91.6033 152.023C92.5772 151.422 92.8334 150.68 92.5643 149.234C92.3978 148.351 92.2056 147.187 91.9109 145.293C91.6674 143.809 91.4239 142.402 90.9883 140.047C90.8089 139.062 90.4757 138.461 89.8991 138.064C88.9766 137.437 87.8234 137.834 87.298 138.934C87.0802 139.382 87.0546 139.574 87.1571 139.894C87.2339 140.124 87.4902 141.544 87.7465 143.054C88.2078 145.792 88.3231 146.483 88.5922 147.89C88.6562 148.287 88.7716 148.965 88.8484 149.387C89.0663 150.833 89.1175 150.974 89.5788 151.499C90.2579 152.305 90.8858 152.458 91.6033 152.023ZM85.4913 124.553C85.8757 124.361 86.3498 123.837 86.6445 123.261C86.7855 122.992 86.6189 122.314 86.1448 121.239C86.0807 121.099 85.8885 120.587 85.722 120.088C85.3247 118.975 84.1843 116.096 83.7615 115.187C83.5949 114.816 83.454 114.484 83.454 114.445C83.454 114.42 83.1849 113.831 82.8517 113.153C82.3392 112.104 82.1598 111.861 81.6729 111.554C80.7888 111.004 80.3019 111.093 79.5202 111.95C79.0205 112.475 78.918 113.064 79.2255 113.691C79.8406 114.983 80.3787 116.237 80.3787 116.365C80.3787 116.454 80.43 116.569 80.4941 116.646C80.5453 116.71 81.0707 117.977 81.6473 119.448C83.5309 124.246 83.4027 123.977 84.2228 124.489C84.7609 124.809 84.9531 124.822 85.4913 124.553ZM70.4227 101.318C71.5631 100.666 71.9218 99.7828 71.4221 98.7976C71.1402 98.2602 69.7307 96.7761 68.4622 95.7141C68.0009 95.3303 67.6037 94.9848 67.5653 94.9464C67.5268 94.908 67.2449 94.6777 66.9246 94.4346C66.6043 94.1915 66.2327 93.8845 66.1045 93.7693C65.5536 93.2575 63.7981 92.1828 63.119 91.9269C62.568 91.7094 62.5296 91.7094 62.0811 91.9525C61.5942 92.2084 60.9023 93.168 60.9023 93.5774C60.9023 94.1276 61.4532 94.7801 62.6065 95.5862C64.49 96.9168 65.6048 97.838 67.1168 99.3094C69.3207 101.459 69.7179 101.702 70.4227 101.318ZM89.7966 94.5114C90.1298 94.3067 90.4373 93.9868 90.6295 93.6286L90.9242 93.0656L90.7833 90.5195C90.6936 89.1249 90.6295 87.1161 90.6295 86.0798C90.6295 83.764 90.5014 83.1754 89.8863 82.6636C89.0663 81.9983 88.2847 82.0111 87.5415 82.702C86.8495 83.3417 86.7855 83.6232 86.7855 85.7727C86.7855 88.0757 87.1058 92.6434 87.298 93.2831C87.4646 93.8333 87.7721 94.2043 88.3359 94.5498C88.8997 94.8952 89.1432 94.8825 89.7966 94.5114ZM22.4619 91.8501C23.205 91.6838 23.7688 91.2104 24.0635 90.5067C24.307 89.9309 24.2173 89.4448 23.7816 88.9202C23.0769 88.0885 23.1666 88.1013 17.5159 88.0629C14.1203 88.0373 12.1983 88.0629 11.8523 88.1525C11.1604 88.3444 10.7119 88.7282 10.4044 89.3936C10.1609 89.8798 10.1609 89.9949 10.3147 90.4171C10.5325 91.0185 11.1732 91.671 11.7242 91.8373C12.3392 92.0421 21.6034 92.0548 22.4619 91.8501ZM49.3701 91.735C49.9724 91.3639 50.2415 91.0313 50.408 90.4683C50.6771 89.5727 49.9339 88.6131 48.7295 88.2932C48.3323 88.1781 46.6024 88.1269 43.0275 88.1269C37.4024 88.1141 37.3767 88.1141 36.672 88.8946C36.121 89.4959 35.9801 90.0077 36.2107 90.5067C36.5439 91.1976 36.9026 91.5175 37.6202 91.7606C38.2224 91.9781 38.8118 91.9909 43.6041 92.0037C48.8064 92.0037 48.9345 91.9909 49.3701 91.735ZM90.1682 69.2933C90.7833 69.0374 91.3727 68.3976 91.5265 67.8347C91.5905 67.5788 91.7699 66.568 91.9109 65.5828C92.385 62.4993 92.6797 60.6185 92.8078 59.902C93.1153 58.2004 92.7565 57.3303 91.5393 56.8185C91.0395 56.6138 90.6167 56.729 90.0657 57.2024C89.5019 57.7014 89.4122 57.9573 89.1047 60.0172C88.9509 60.964 88.7844 62.0387 88.7203 62.3842C88.2462 64.9431 87.9002 67.63 87.9899 67.9882C88.1053 68.4488 89.015 69.2421 89.6813 69.4852C89.6941 69.4852 89.912 69.3956 90.1682 69.2933Z" fill="#0B0B0B"/>
<path d="M114.207 184.547C114.207 176.154 113.822 167.031 113.053 157.32C112.989 156.476 112.874 154.979 112.797 153.993C112.656 152.189 112.515 150.629 112.284 148.172C112.208 147.43 112.092 146.227 112.015 145.485C111.631 141.519 110.529 131.257 110.093 127.739C110.029 127.112 109.914 126.216 109.85 125.717C109.414 122.122 109.337 120.779 109.337 116.633C109.337 111.989 109.466 110.095 109.991 107.037C110.298 105.272 110.926 102.738 111.503 101.024C112.464 98.0811 113.579 95.5606 115.103 92.8353C115.488 92.1444 116.615 90.3532 116.859 90.0205C116.923 89.9438 117.218 89.5215 117.525 89.0609C118.102 88.2293 119.575 86.2333 119.703 86.1182C119.742 86.0798 120.152 85.6192 120.613 85.0946C121.677 83.8663 123.483 82.0623 124.714 81.0003C125.239 80.5397 125.7 80.1431 125.739 80.1047C125.777 80.0663 126.059 79.836 126.379 79.5929C126.7 79.3498 126.982 79.1195 127.02 79.0811C127.058 79.0428 127.289 78.8636 127.533 78.6973C127.776 78.531 128.007 78.3519 128.045 78.3135C128.224 78.1343 131.723 75.8057 132.568 75.3195C135.836 73.4387 140.602 71.5451 144.318 70.6623C145.869 70.2913 146.368 70.1889 148.162 69.869C148.623 69.7923 149.29 69.6771 149.636 69.6131C149.995 69.5492 150.802 69.434 151.43 69.37C152.07 69.2933 153.108 69.1781 153.749 69.1014C154.876 68.9734 188.268 68.9094 188.268 69.0374C188.268 69.063 188.358 69.4212 188.473 69.8307C188.832 71.1869 189.255 72.863 189.537 74.0913C189.947 75.8697 190.024 76.2535 190.178 77.034C190.254 77.4179 190.37 78.032 190.434 78.3774C190.549 78.9916 190.69 79.8488 190.959 81.5505C191.215 83.3034 191.42 85.1714 191.754 88.805C191.997 91.5175 191.946 101.152 191.677 103.826C191.561 105.016 191.446 106.027 191.42 106.065C191.395 106.103 185.155 106.129 177.543 106.103C164.358 106.078 159.951 106.155 157.516 106.462C154.953 106.794 154.287 106.897 153.07 107.178C146.727 108.662 141.486 112.002 138.578 116.403C138.142 117.081 136.976 119.32 136.617 120.216C136.015 121.7 135.413 124.169 135.144 126.229C134.939 127.88 134.913 131.923 135.092 133.688C135.323 135.825 135.618 138.422 135.925 140.879C136.041 141.762 136.182 142.939 136.246 143.502C136.31 144.065 136.425 145.012 136.502 145.613C136.579 146.214 136.694 147.11 136.758 147.596C137.027 149.682 137.886 156.898 138.04 158.472C138.104 159.111 138.219 160.148 138.283 160.775C138.744 164.933 139.295 170.639 139.577 174.145C139.731 175.923 139.949 179.583 139.962 180.325V180.798L137.694 181.924C136.438 182.538 134.952 183.242 134.388 183.472C133.824 183.715 133.017 184.061 132.594 184.253C131.902 184.56 130.864 184.969 128.25 185.967C126.174 186.773 121.395 188.27 119.46 188.731C119.217 188.795 118.807 188.897 118.563 188.961C117.23 189.319 115.129 189.754 114.706 189.754H114.207V184.547ZM128.071 174.797C129.109 174.145 129.083 174.35 128.865 168.413C128.724 164.485 128.634 163.052 128.481 162.579C128.25 161.849 127.584 161.158 126.994 161.043C126.482 160.941 125.611 161.363 125.2 161.913C124.919 162.297 124.906 162.4 124.931 164.165C124.97 166.66 125.226 173.237 125.303 173.595C125.38 173.991 126.085 174.772 126.559 174.977C127.161 175.233 127.43 175.207 128.071 174.797ZM125.611 147.276C126.033 146.969 126.443 146.445 126.533 146.048C126.572 145.907 126.546 145.447 126.495 145.024C126.008 141.711 125.598 138.243 125.354 135.505C125.277 134.558 125.124 133.612 125.034 133.394C124.803 132.895 124.252 132.371 123.676 132.14C123.266 131.974 123.176 131.974 122.74 132.191C121.702 132.69 121.331 133.458 121.497 134.776C121.574 135.288 121.69 136.388 121.766 137.233C121.984 139.561 122.33 142.158 122.868 145.485C123.15 147.238 124.457 148.095 125.611 147.276ZM124.432 115.239C125.085 114.829 125.341 114.407 125.611 113.319C126.008 111.733 126.764 109.532 127.545 107.703C127.968 106.73 128.301 105.911 128.301 105.886C128.301 105.86 128.468 105.476 128.673 105.029C129.301 103.634 129.314 103.608 129.134 103.186C128.929 102.7 128.429 102.175 127.891 101.907C127.545 101.728 127.417 101.715 127.033 101.856C126.251 102.137 125.79 102.726 125.098 104.35C124.867 104.913 124.534 105.668 124.368 106.039C124.022 106.82 123.906 107.089 123.407 108.445C123.061 109.366 122.92 109.814 122.535 111.004C122.087 112.411 121.779 113.908 121.882 114.177C122.125 114.791 123.099 115.546 123.663 115.546C123.817 115.546 124.163 115.405 124.432 115.239ZM141.025 92.4643C142.358 91.6582 144.1 90.8266 145.215 90.4811C145.74 90.3148 146.317 90.1357 146.496 90.0717C146.676 90.0205 147.368 89.8798 148.034 89.7646C150.353 89.3552 150.763 89.1377 151.161 88.1781C151.34 87.7303 151.34 87.6151 151.173 87.2441C150.776 86.3485 150.11 85.8623 149.29 85.8623C148.803 85.8623 146.548 86.2845 145.343 86.6044C143.575 87.0778 141.884 87.8199 139.936 88.9714C138.488 89.8414 138.142 90.1613 137.911 90.8394C137.77 91.3 137.77 91.3895 138.052 91.8885C138.398 92.5027 139.167 93.0273 139.744 93.0273C139.936 93.0273 140.513 92.7714 141.025 92.4643ZM176.813 89.1249C177.146 88.933 177.505 88.5747 177.71 88.2293C178.005 87.7175 178.018 87.6151 177.889 87.2185C177.697 86.6172 176.993 85.9391 176.377 85.7599C175.698 85.5552 166.575 85.5424 165.768 85.7471C165.127 85.9135 164.192 86.7451 164.153 87.1929C164.102 88.0502 164.474 88.7667 165.204 89.1761C165.627 89.4064 165.934 89.4192 170.957 89.432L176.262 89.4448L176.813 89.1249Z" fill="#0B0B0B"/>
<path d="M69.4231 188.104C69.2822 188.04 68.9106 187.912 68.5903 187.835C67.8599 187.63 65.0153 186.709 64.6822 186.569C64.5412 186.505 64.2209 186.389 63.9774 186.3C63.734 186.21 63.4136 186.095 63.2727 186.044C63.1317 185.98 62.1835 185.609 61.1585 185.212C60.1334 184.816 59.0699 184.381 58.788 184.253C58.5061 184.138 57.6476 183.754 56.8659 183.408C55.1233 182.653 50.4592 180.286 48.9857 179.429C47.5506 178.585 45.6285 177.433 45.462 177.318C45.3979 177.267 44.36 176.576 43.1555 175.783C41.9639 175.002 40.926 174.299 40.8491 174.247C40.785 174.183 40.0931 173.672 39.3115 173.096C38.5427 172.52 37.8764 172.021 37.8379 171.983C37.7995 171.944 37.4023 171.624 36.941 171.266C36.2106 170.716 33.917 168.835 33.7376 168.643C33.6992 168.605 33.2379 168.208 32.7126 167.76C31.4953 166.711 25.8574 161.082 24.7682 159.815C24.3069 159.29 23.8713 158.779 23.7816 158.689C23.6919 158.6 23.41 158.254 23.1409 157.921C22.8718 157.589 22.5899 157.243 22.5002 157.154C22.4105 157.064 22.1286 156.719 21.8596 156.386C21.5905 156.053 21.3342 155.759 21.2958 155.721C21.2573 155.682 20.5782 154.8 19.7966 153.738C19.015 152.688 18.323 151.767 18.259 151.69C18.2077 151.626 17.5286 150.616 16.747 149.451C13.8768 145.191 11.1091 140.278 9.00764 135.697C8.78981 135.237 8.45666 134.495 8.23883 134.034C8.03382 133.573 7.85443 133.164 7.85443 133.138C7.85443 133.113 7.71348 132.78 7.54691 132.409C7.18813 131.629 6.52183 129.978 6.18868 129.044C6.06055 128.699 5.77865 127.918 5.54801 127.317C5.06109 125.999 4.39479 124.016 4.01039 122.711C3.84382 122.186 3.65161 121.521 3.5491 121.227C3.3569 120.625 2.66498 118.015 2.39589 116.928C2.29338 116.518 2.12681 115.827 2.0243 115.392C1.90898 114.944 1.78085 114.164 1.74241 113.652L1.66553 112.718L15.8757 112.744C39.1705 112.795 40.4903 112.846 45.7823 114.1C51.9584 115.559 57.0838 118.808 60.6587 123.542C64.2465 128.315 66.7708 134.942 68.3468 143.796C68.4109 144.154 68.5262 144.794 68.5903 145.204C69.5385 150.36 70.2688 157.691 70.7045 166.34C70.8967 170.179 70.9479 183.651 70.7814 186.684L70.7045 188.155L70.192 188.181C69.9101 188.193 69.5641 188.155 69.4231 188.104Z" fill="#0B0B0B"/>
<path d="M146.202 175.719C146.112 174.695 145.958 172.993 145.74 170.818C145.663 170.153 145.548 169.002 145.484 168.259C145.151 164.843 144.946 162.911 144.446 158.344C144.382 157.781 144.28 156.77 144.203 156.105C144.139 155.439 144.049 154.633 143.998 154.313C143.959 153.993 143.844 152.932 143.729 151.946C143.626 150.961 143.472 149.694 143.408 149.132C143.344 148.569 143.229 147.622 143.152 147.02C143.075 146.419 142.973 145.536 142.908 145.037C142.844 144.551 142.768 143.822 142.716 143.438C142.678 143.054 142.588 142.338 142.524 141.839C142.396 140.969 142.063 138.128 141.742 135.377C141.525 133.509 141.525 127.406 141.742 126.101C142.024 124.361 142.409 122.979 142.908 121.892C143.844 119.845 145.151 118.13 146.753 116.825C147.137 116.505 147.483 116.224 147.521 116.185C147.726 115.968 149.008 115.2 149.892 114.778C151.98 113.767 154.543 113.14 157.58 112.872C158.708 112.769 164.294 112.705 174.788 112.693L190.318 112.667V113.051C190.318 113.422 190.177 114.113 189.409 117.337C188.909 119.435 188.781 119.883 187.999 122.583C187.666 123.709 186.705 126.639 186.41 127.457C186.295 127.765 186.077 128.34 185.936 128.724C185.795 129.108 185.629 129.543 185.577 129.684C185.526 129.824 185.347 130.285 185.18 130.707C185.026 131.13 184.732 131.833 184.527 132.281C184.334 132.716 184.168 133.113 184.168 133.138C184.168 133.164 184.014 133.522 183.835 133.932C183.655 134.341 183.412 134.878 183.309 135.121C182.656 136.67 180.042 141.762 178.94 143.63C178.697 144.052 178.402 144.577 178.274 144.781C177.236 146.585 175.57 149.144 173.891 151.499C173.174 152.522 172.546 153.379 172.508 153.418C172.469 153.456 172.29 153.686 172.123 153.929C171.957 154.173 171.777 154.403 171.739 154.441C171.7 154.48 171.47 154.761 171.226 155.081C170.983 155.401 170.752 155.682 170.714 155.721C170.675 155.759 170.445 156.041 170.201 156.36C169.958 156.68 169.727 156.962 169.689 157C169.65 157.039 169.304 157.435 168.92 157.896C168.535 158.356 168.125 158.817 168.023 158.919C167.92 159.022 167.395 159.597 166.87 160.199C165.87 161.325 162.065 165.163 160.835 166.276C159.617 167.389 158.362 168.49 157.964 168.784C157.759 168.95 157.503 169.155 157.413 169.245C157.324 169.334 156.978 169.616 156.645 169.884C156.311 170.153 156.017 170.409 155.978 170.447C155.94 170.486 155.081 171.138 154.056 171.893C153.031 172.648 152.07 173.364 151.916 173.48C151.481 173.812 149.777 174.964 148.38 175.885C147.47 176.474 146.996 176.704 146.701 176.704H146.278L146.202 175.719Z" fill="#0B0B0B"/>
<path d="M106.339 92.6178C106.275 92.3108 106.236 91.6198 105.993 85.6064C105.839 81.6145 105.916 72.0185 106.121 69.0374C106.428 64.9815 106.659 62.3458 106.903 60.3755C107.249 57.6246 107.287 57.3431 107.735 54.6435C107.851 53.9782 107.992 53.1081 108.056 52.7243C108.107 52.3404 108.274 51.4704 108.427 50.8051C108.568 50.1398 108.799 49.0778 108.94 48.4381C109.337 46.6213 110.196 43.2435 110.49 42.2967C110.567 42.092 110.798 41.2859 111.016 40.5055C111.451 38.9445 111.528 38.6758 111.887 37.5627C112.028 37.1405 112.259 36.36 112.412 35.8354C112.566 35.3108 112.745 34.7351 112.797 34.556C112.861 34.3768 113.091 33.6348 113.309 32.8927C113.912 30.9095 113.924 30.8327 114.155 30.1418C114.27 29.7964 114.411 29.2974 114.462 29.0543C114.527 28.8112 114.719 28.1203 114.898 27.5189C115.846 24.3459 117.038 19.5607 117.653 16.4516C118.242 13.4449 118.729 10.3998 119.203 6.59978C119.28 5.97285 119.408 5.06443 119.473 4.59103C119.537 4.11763 119.588 3.52908 119.588 3.28598C119.588 2.83817 119.601 2.82538 120.075 2.82538C120.792 2.82538 124.085 3.81056 127.724 5.10281C133.311 7.09877 139.449 10.0415 145.023 13.3809C146.599 14.3149 150.712 16.9762 150.853 17.1425C150.891 17.1809 151.288 17.4752 151.75 17.7823C152.583 18.358 154.581 19.8294 154.697 19.9701C154.735 20.0085 155.312 20.4563 155.978 20.9809C156.644 21.5055 157.362 22.0812 157.58 22.2732C157.785 22.4651 158.49 23.0792 159.117 23.6294C161.116 25.3822 164.819 28.9647 166.677 30.9863C167.1 31.4341 167.741 32.125 168.087 32.5088C169.304 33.8267 171.636 36.6671 173.11 38.6374C173.404 39.0341 173.699 39.4179 173.763 39.4819C173.814 39.5587 174.122 39.9809 174.43 40.4415C174.75 40.9021 175.045 41.2987 175.083 41.3371C175.224 41.4523 177.851 45.4953 178.62 46.7748C180.516 49.9223 181.977 52.6603 183.284 55.5007C184.155 57.3815 184.296 57.7014 184.834 58.9936C185.718 61.0792 185.731 61.1047 185.68 61.6037L185.641 62.0899L172.431 62.0643C164.678 62.0643 158.374 62.1155 157.183 62.1923C153.351 62.4354 150.276 62.768 146.624 63.3438C146.24 63.4078 145.689 63.4973 145.407 63.5357C144.805 63.6253 143.716 63.8556 142.05 64.2522C135.002 65.9155 127.801 69.5108 121.574 74.4623C119.511 76.1128 116.423 79.1579 114.719 81.2562C114.398 81.6401 114.117 81.9855 114.078 82.0239C114.04 82.0623 113.809 82.3438 113.566 82.6636C113.322 82.9835 113.079 83.3034 113.015 83.3673C112.963 83.4441 112.694 83.8151 112.412 84.199C112.13 84.5828 111.861 84.9667 111.797 85.0434C111.733 85.1074 111.605 85.3121 111.515 85.4912C111.426 85.6576 111.31 85.8239 111.272 85.8623C110.99 86.0798 108.338 90.7498 107.415 92.6434C107.364 92.7458 107.12 92.8481 106.864 92.8737C106.467 92.9121 106.39 92.8737 106.339 92.6178Z" fill="#0B0B0B"/>
<path d="M3.88232 67.7067C3.88232 66.8367 5.49682 62.2178 7.31633 57.9061C7.94419 56.4219 10.9169 50.3829 11.5448 49.3209C11.7498 48.9755 12.3136 48.0286 12.7877 47.2226C14.4534 44.3822 17.1571 40.2751 17.9771 39.3283C18.0412 39.2388 18.2334 38.9829 18.4 38.7526C18.7075 38.292 19.3354 37.4603 19.6685 37.0509C19.7838 36.9101 20.3861 36.1553 21.0139 35.3748C22.8463 33.0718 23.8841 31.8947 26.2418 29.4509C28.702 26.892 30.0346 25.6125 32.072 23.8085C32.6614 23.2839 33.2252 22.7849 33.3277 22.6954C33.4174 22.6058 33.7633 22.3243 34.0965 22.0556C34.4296 21.7869 34.7243 21.5438 34.7628 21.5055C34.8012 21.4671 35.0831 21.2368 35.4035 20.9937C35.7238 20.7506 36.0057 20.5203 36.0441 20.4691C36.0826 20.4307 36.9795 19.7526 38.0302 18.9721C39.0937 18.1917 40.0163 17.5008 40.0804 17.4368C40.3879 17.2065 43.745 14.9674 44.501 14.5068C44.9623 14.2253 45.808 13.7136 46.3718 13.3553C47.3712 12.7412 47.9222 12.4213 49.6008 11.5129C49.998 11.2826 50.3952 11.0651 50.4593 11.0139C50.6259 10.8732 55.3028 8.54454 56.0716 8.21188C56.4047 8.05835 56.9173 7.82804 57.2248 7.7001C58.0705 7.31626 62.9524 5.38427 63.5931 5.16677C63.9134 5.06441 64.631 4.82131 65.1948 4.6166C66.1814 4.27115 69.1157 3.36273 70.192 3.06845C70.4739 2.99169 70.8455 2.87654 71.0249 2.82536C71.9475 2.55667 72.2934 2.45432 72.8188 2.33916C74.3692 1.96812 75.1252 1.789 75.7659 1.66105C76.1503 1.58428 76.7013 1.46913 76.9832 1.40516C77.2651 1.34118 77.816 1.23883 78.2004 1.16206C78.5848 1.09809 79.2511 0.982937 79.674 0.906169C81.942 0.483947 86.4523 -0.0406316 89.0022 -0.194167L90.3732 -0.270935V1.16206C90.3732 1.94253 90.322 3.28596 90.2451 4.1432C89.9248 8.19908 89.7582 9.93915 89.4635 12.2934C88.9638 16.4004 88.0924 21.0576 87.1058 24.96C86.9905 25.4206 86.8367 25.9964 86.7855 26.2395C86.7214 26.4826 86.5548 27.1223 86.4011 27.6469C86.2473 28.1714 86.0807 28.7856 86.0295 28.9903C85.581 30.628 83.6462 35.9506 82.7877 37.8825C81.3013 41.2603 80.3403 43.0388 78.2773 46.327C77.5726 47.4529 75.2277 50.7027 74.8689 51.061C74.8305 51.0993 74.4845 51.496 74.1001 51.9566C71.0121 55.603 66.6171 59.3263 63.0165 61.335C61.1201 62.4098 58.6471 63.5869 56.9685 64.2522C56.8019 64.3162 56.5457 64.4185 56.3919 64.4953C55.6744 64.8024 51.8559 66.0051 50.7796 66.2609C46.013 67.4125 42.8609 67.8475 37.6458 68.0778C36.0954 68.1545 27.8691 68.2057 19.361 68.2057H3.88232V67.7067Z" fill="#0B0B0B"/>
</g>
<defs>
<clipPath id="clip0_58_83">
<rect width="192" height="192" fill="white"/>
</clipPath>
</defs>
</svg>
